<?xml version="1.0" encoding="UTF-8" standalone="no"?>
<!-- Created with Inkscape (http://www.inkscape.org/) -->

<svg
   xmlns:dc="http://purl.org/dc/elements/1.1/"
   xmlns:cc="http://creativecommons.org/ns#"
   xmlns:rdf="http://www.w3.org/1999/02/22-rdf-syntax-ns#"
   xmlns:svg="http://www.w3.org/2000/svg"
   xmlns="http://www.w3.org/2000/svg"
   xmlns:sodipodi="http://sodipodi.sourceforge.net/DTD/sodipodi-0.dtd"
   xmlns:inkscape="http://www.inkscape.org/namespaces/inkscape"
   width="611"
   height="821.21002"
   id="svg2"
   version="1.1"
   inkscape:version="0.48.2 r9819"
   sodipodi:docname="Angry Birds ALL.svg">
  <defs
     id="defs4">
    <inkscape:perspective
       sodipodi:type="inkscape:persp3d"
       inkscape:vp_x="0 : 526.18109 : 1"
       inkscape:vp_y="0 : 1000 : 0"
       inkscape:vp_z="744.09448 : 526.18109 : 1"
       inkscape:persp3d-origin="372.04724 : 350.78739 : 1"
       id="perspective10" />
    <inkscape:perspective
       id="perspective2824"
       inkscape:persp3d-origin="0.5 : 0.33333333 : 1"
       inkscape:vp_z="1 : 0.5 : 1"
       inkscape:vp_y="0 : 1000 : 0"
       inkscape:vp_x="0 : 0.5 : 1"
       sodipodi:type="inkscape:persp3d" />
    <inkscape:perspective
       id="perspective2866"
       inkscape:persp3d-origin="0.5 : 0.33333333 : 1"
       inkscape:vp_z="1 : 0.5 : 1"
       inkscape:vp_y="0 : 1000 : 0"
       inkscape:vp_x="0 : 0.5 : 1"
       sodipodi:type="inkscape:persp3d" />
    <inkscape:perspective
       id="perspective2880"
       inkscape:persp3d-origin="0.5 : 0.33333333 : 1"
       inkscape:vp_z="1 : 0.5 : 1"
       inkscape:vp_y="0 : 1000 : 0"
       inkscape:vp_x="0 : 0.5 : 1"
       sodipodi:type="inkscape:persp3d" />
    <inkscape:perspective
       id="perspective2925"
       inkscape:persp3d-origin="0.5 : 0.33333333 : 1"
       inkscape:vp_z="1 : 0.5 : 1"
       inkscape:vp_y="0 : 1000 : 0"
       inkscape:vp_x="0 : 0.5 : 1"
       sodipodi:type="inkscape:persp3d" />
    <inkscape:perspective
       id="perspective2961"
       inkscape:persp3d-origin="0.5 : 0.33333333 : 1"
       inkscape:vp_z="1 : 0.5 : 1"
       inkscape:vp_y="0 : 1000 : 0"
       inkscape:vp_x="0 : 0.5 : 1"
       sodipodi:type="inkscape:persp3d" />
    <filter
       id="filter2967"
       inkscape:label="Desaturate"
       x="0"
       y="0"
       width="1"
       height="1"
       inkscape:menu="Color"
       inkscape:menu-tooltip="Render in shades of gray by reducing saturation to zero"
       color-interpolation-filters="sRGB">
      <feColorMatrix
         id="feColorMatrix2969"
         type="saturate"
         values="0" />
    </filter>
    <inkscape:perspective
       id="perspective3002"
       inkscape:persp3d-origin="0.5 : 0.33333333 : 1"
       inkscape:vp_z="1 : 0.5 : 1"
       inkscape:vp_y="0 : 1000 : 0"
       inkscape:vp_x="0 : 0.5 : 1"
       sodipodi:type="inkscape:persp3d" />
    <inkscape:perspective
       id="perspective3845"
       inkscape:persp3d-origin="0.5 : 0.33333333 : 1"
       inkscape:vp_z="1 : 0.5 : 1"
       inkscape:vp_y="0 : 1000 : 0"
       inkscape:vp_x="0 : 0.5 : 1"
       sodipodi:type="inkscape:persp3d" />
  </defs>
  <sodipodi:namedview
     id="base"
     pagecolor="#ffffff"
     bordercolor="#666666"
     borderopacity="1.0"
     inkscape:pageopacity="0.0"
     inkscape:pageshadow="2"
     inkscape:zoom="0.47797233"
     inkscape:cx="39.777811"
     inkscape:cy="421.40361"
     inkscape:document-units="px"
     inkscape:current-layer="layer1"
     showgrid="false"
     inkscape:window-width="1366"
     inkscape:window-height="712"
     inkscape:window-x="-4"
     inkscape:window-y="-4"
     inkscape:window-maximized="1" />
  <metadata
     id="metadata7">
    <rdf:RDF>
      <cc:Work
         rdf:about="">
        <dc:format>image/svg+xml</dc:format>
        <dc:type
           rdf:resource="http://purl.org/dc/dcmitype/StillImage" />
        <dc:title />
      </cc:Work>
    </rdf:RDF>
  </metadata>
  <g
     inkscape:label="Layer 1"
     inkscape:groupmode="layer"
     id="layer1"
     transform="translate(-9.0289614,-45.107511)">
    <path
       style="fill:#000000"
       d="m 169.19244,311.04846 c -18.59816,-2.6382 -37.75795,-10.55355 -54.18344,-22.38437 -5.38728,-3.88029 -11.92639,-9.51533 -14.53137,-12.5223 -8.05457,-9.29749 -12.156825,-22.12859 -13.552222,-42.38874 -0.357011,-5.18357 -0.826503,-9.42464 -1.04332,-9.42464 -0.661428,0 -8.90561,5.69859 -11.101756,7.67382 l -2.063384,1.85583 -1.336987,-3.19986 c -3.246907,-7.77093 -3.314609,-7.63248 4.822579,-9.86252 4.030264,-1.10451 8.108909,-2.05736 9.063647,-2.11745 2.99026,-0.18823 -3.546661,-1.51333 -7.960727,-1.61372 -2.28563,-0.0519 -8.23913,-0.8024 -13.230003,-1.66756 l -9.074308,-1.57303 0.607641,-3.23903 c 0.549073,-2.9268 4.656783,-12.11412 5.416303,-12.11412 0.171209,0 4.359432,1.89171 9.307162,4.2038 4.947731,2.31208 11.138078,5.00953 13.75633,5.99433 l 4.760464,1.79053 -4.099654,-3.45474 c -2.254805,-1.90011 -5.994929,-5.22091 -8.311384,-7.37957 l -4.211729,-3.92481 4.332807,-4.1557 c 2.383039,-2.28563 4.767335,-4.1557 5.298442,-4.1557 0.531098,0 2.415003,2.87807 4.186453,6.3957 1.771452,3.51763 3.621235,6.64318 4.110626,6.94564 0.4894,0.30246 4.27997,-6.09509 8.42348,-14.2168 8.00964,-15.69971 12.84689,-22.17506 29.10092,-38.95564 l 7.7207,-7.97081 -5.26733,-1.48904 c -7.4287,-2.10003 -11.06423,-4.53286 -11.47718,-7.68032 -0.51356,-3.91444 2.83914,-9.4116 7.05046,-11.56005 4.41058,-2.25012 16.07472,-3.23196 21.27115,-1.79053 2.00312,0.55564 3.77473,0.87755 3.93695,0.71534 0.1622,-0.16221 -0.33388,-1.79988 -1.10244,-3.63925 -2.349,-5.62195 -1.84492,-10.48606 1.42557,-13.75657 2.68702,-2.687 3.0952,-2.79824 8.47743,-2.31019 13.06102,1.18432 32.58077,16.08654 41.41001,31.61416 3.38848,5.95917 6.95971,9.25415 16.08944,14.84485 8.03578,4.92082 26.8337,20.14985 31.60153,25.60182 14.57377,16.66499 23.74708,39.80982 23.67447,59.7321 -0.0319,8.77123 -3.24201,27.30215 -6.47885,37.40124 -6.62669,20.67555 -32.92774,38.93022 -62.64947,43.48288 -9.0854,1.39167 -25.44253,1.53291 -34.16901,0.29502 z"
       id="path2854"
       inkscape:connector-curvature="0" />
    <path
       style="fill:#e9afaf"
       d="m 212.13457,303.76482 c 8.75963,-2.35236 22.48359,-8.03824 26.77151,-11.09151 l 2.80528,-1.99755 -3.35919,-6.39255 c -1.84756,-3.5159 -3.66478,-6.39256 -4.03828,-6.39256 -0.37348,0 -2.50375,1.5812 -4.7339,3.51376 -7.24631,6.27936 -9.95385,7.8197 -12.75898,7.25867 -3.03389,-0.60678 -9.59306,-4.4607 -20.6917,-12.15765 -8.8507,-6.138 -10.41402,-8.69177 -9.62205,-15.71809 0.4264,-3.78287 0.32588,-3.97947 -2.30344,-4.50534 -4.05233,-0.81046 -18.73732,1.04018 -25.63149,3.23016 -3.30146,1.04874 -8.49608,3.11328 -11.54359,4.5879 -8.73465,4.22646 -28.16636,18.7956 -28.16636,21.11803 0,1.69986 13.26419,9.29446 22.16369,12.69012 18.84428,7.19021 27.07987,8.61851 47.5596,8.24836 12.80944,-0.23153 17.14419,-0.67178 23.5489,-2.39175 z"
       id="path2852"
       inkscape:connector-curvature="0" />
    <path
       style="fill:#ff0000"
       d="m 255.53848,277.76946 c 0,-1.76123 -9.51852,-7.33272 -12.34898,-7.22825 -0.57288,0.0212 -2.66649,1.47328 -4.65251,3.22699 -3.32074,2.93233 -3.49619,3.31884 -2.18313,4.80986 0.78529,0.89173 2.52811,3.81688 3.87292,6.50034 l 2.44511,4.87902 6.4333,-5.75987 c 3.5383,-3.16793 6.43329,-6.06057 6.43329,-6.42809 z"
       id="path2850"
       inkscape:connector-curvature="0" />
    <path
       style="fill:#ffcc00"
       d="m 224.42145,282.35063 c 9.3624,-6.30265 16.44451,-12.11515 15.67575,-12.86552 -0.90743,-0.88574 -19.08408,-3.59979 -24.10865,-3.59979 -4.4628,0 -17.96604,4.09019 -19.46468,5.89594 -0.82759,0.9972 -0.32666,1.9024 2.35643,4.2582 3.06316,2.68951 17.05538,10.16259 19.0279,10.16259 0.43567,0 3.36664,-1.73314 6.51325,-3.85142 z"
       id="path2848"
       inkscape:connector-curvature="0" />
    <path
       style="fill:#ff0000"
       d="m 122.62793,279.35779 c 7.51171,-6.9545 20.08642,-15.02779 29.01379,-18.6276 8.69064,-3.50436 20.66425,-5.96754 29.83495,-6.13759 l 6.38442,-0.11838 2.51973,-3.98287 c 1.38588,-2.19057 5.195,-6.33158 8.46472,-9.20224 3.26973,-2.87067 5.73781,-5.42653 5.48463,-5.67971 -0.975,-0.975 -15.51311,-0.0359 -19.11436,1.23464 -4.64147,1.63761 -5.67955,1.67444 -5.139,0.18231 0.23001,-0.6349 -0.25482,-1.92629 -1.0774,-2.86977 -2.31559,-2.65595 -2.12757,-18.64501 0.26213,-22.29014 0.96676,-1.47463 1.38233,-2.81867 0.92349,-2.98674 -0.45884,-0.16809 -3.32765,-1.64919 -6.37517,-3.29137 -4.95614,-2.67067 -5.52778,-3.2769 -5.4164,-5.74428 0.0684,-1.51718 1.18842,-5.14804 2.48877,-8.06857 2.61215,-5.8668 4.59748,-6.73648 7.6328,-3.34356 4.15774,4.64757 35.74066,23.89116 39.21058,23.89116 1.26403,0 19.98839,-11.62512 24.4223,-15.16272 8.00148,-6.38399 9.64975,-7.26603 11.18976,-5.98794 0.78541,0.65184 2.66773,3.64101 4.18292,6.64257 2.59978,5.15009 2.66723,5.55426 1.19821,7.17751 -0.85617,0.94607 -3.06481,2.21693 -4.9081,2.82414 -1.84326,0.6072 -4.75026,1.68751 -6.45997,2.40068 l -3.10858,1.29666 1.87483,2.02064 c 1.03114,1.11136 2.5903,4.51407 3.46476,7.56158 0.87448,3.0475 1.77492,6.03204 2.001,6.6323 0.29352,0.77933 -1.53319,1.08375 -6.38898,1.0647 -6.87374,-0.027 -14.06141,1.36858 -16.23694,3.15252 -0.91163,0.74755 -0.34769,1.44838 2.43936,3.03145 15.13541,8.59707 26.41584,21.01239 28.32159,31.17094 0.35403,1.88714 0.99349,3.43117 1.42104,3.43117 1.30034,0 6.1045,-16.47081 7.87858,-27.01127 1.4625,-8.68945 1.53051,-11.03717 0.54557,-18.83544 -1.41943,-11.23825 -4.26417,-22.45788 -7.08461,-27.94148 -9.85281,-19.15629 -31.75505,-40.45102 -51.44304,-50.01619 -2.46279,-1.19651 -4.73589,-3.09354 -5.36013,-4.47331 -2.63914,-5.83351 -11.61346,-17.8503 -19.10179,-25.57766 -6.52179,-6.72998 -9.56377,-9.10112 -15.25598,-11.89161 -8.36393,-4.10025 -13.25809,-4.60375 -17.08645,-1.75783 -2.6889,1.99886 -3.70568,5.91304 -2.63948,10.16107 1.26641,5.04582 8.43931,11.06488 22.02177,18.47934 5.9679,3.2578 6.89559,4.01437 4.35231,3.5496 -4.77197,-0.87207 -13.6828,-5.21099 -18.85467,-9.18084 -5.8595,-4.49768 -8.84703,-5.66913 -16.47035,-6.45823 -7.40291,-0.76628 -13.94697,1.00447 -17.74377,4.80127 -3.11354,3.11353 -2.886,7.16004 0.546,9.71057 3.13643,2.33089 11.79049,4.34684 18.8155,4.38305 3.04752,0.0156 6.16429,0.43142 6.92616,0.92378 1.01366,0.65509 0.3254,0.899 -2.56592,0.90935 -6.01932,0.0215 -13.46771,4.32531 -21.0757,12.1778 -15.42669,15.92245 -29.47393,38.85083 -34.45615,56.24047 -1.08099,3.77304 -2.43812,12.36457 -3.01583,19.09229 -0.934068,10.87767 -0.864686,13.11707 0.62654,20.22305 1.94907,9.28761 7.85342,22.00282 12.93044,27.84613 2.72068,3.13131 11.50917,9.36826 13.26417,9.41321 0.18607,0.005 2.76724,-2.24012 5.73595,-4.98861 z"
       id="path2846"
       inkscape:connector-curvature="0" />
    <path
       style="fill:#ffcc00"
       d="m 258.30894,271.86814 c 0,-6.21547 -3.54313,-13.20638 -10.29653,-20.31593 -6.91756,-7.28242 -19.76399,-16.40697 -26.17452,-18.59126 -3.76043,-1.28131 -4.24463,-1.24168 -8.00725,0.65527 -11.14851,5.62057 -24.31133,18.01409 -23.69406,22.30925 0.46452,3.23235 7.45212,5.22669 27.07719,7.72814 9.65043,1.23008 19.81015,2.89426 22.57714,3.69822 5.57632,1.62018 15.2832,6.26988 16.20584,7.76276 1.06342,1.72066 2.31219,-0.0327 2.31219,-3.24645 z"
       id="path2844"
       inkscape:connector-curvature="0" />
    <path
       style="fill:#ffffff"
       d="m 199.91757,268.27676 c 3.67818,-1.47826 6.46879,-2.90658 6.20133,-3.17402 -0.71698,-0.717 -12.54101,-3.91789 -15.22452,-4.12146 -1.94495,-0.14754 -2.35217,0.26912 -2.58454,2.64451 -0.26453,2.70407 2.88516,8.26083 4.31513,7.61285 0.33274,-0.15077 3.6144,-1.48363 7.2926,-2.96188 z"
       id="path2842"
       inkscape:connector-curvature="0" />
    <path
       style="fill:#ffffff"
       d="m 182.69019,210.61988 c -2.43865,0.15614 -2.80381,2.03981 -3.86712,5.82952 -1.30283,4.64348 -0.67018,9.45297 1.96242,14.89123 1.96139,4.05168 2.20125,4.21005 4.93488,3.54965 1.58142,-0.38204 7.50245,-0.76681 13.1597,-0.86578 8.73942,-0.15285 10.75717,-0.49441 13.506,-2.19328 3.30666,-2.04363 5.0623,-6.44904 3.83824,-9.63889 -0.3505,-0.9134 -6.75406,-3.51545 -17.2288,-7.01273 -9.35329,-3.12283 -13.86668,-4.71585 -16.30532,-4.55972 z m 16.21874,10.12951 c 0.28705,-0.0101 0.59112,0.0227 0.89462,0.0578 3.19237,0.36787 5.07532,4.37012 3.14563,6.69527 -1.24122,1.49558 -5.27759,1.93144 -7.07045,0.75035 -3.58276,-2.36027 -1.27555,-7.3526 3.0302,-7.50333 z"
       id="path2840"
       inkscape:connector-curvature="0" />
    <path
       style="fill:#ffffff"
       d="m 242.37053,212.38028 c -1.1311,0.0349 -6.85688,2.03955 -12.69793,4.44428 -10.4837,4.31609 -10.61305,4.41866 -10.85098,7.56105 -0.29069,3.83909 0.20869,4.58789 4.38657,6.52214 3.01368,1.39524 3.38827,1.39894 5.54091,-0.11545 1.26979,-0.8933 3.97099,-2.0923 6.00267,-2.65502 2.03167,-0.56272 5.84346,-1.0361 8.45568,-1.03891 5.60143,-0.007 6.37947,-1.07767 4.87717,-6.78187 -1.41525,-5.3737 -3.29663,-8.01056 -5.71409,-7.93622 z m -16.91135,9.46575 c 0.73701,0.003 1.50166,0.28956 2.19328,0.98121 1.17612,1.17609 1.29397,1.91572 0.51946,3.14562 -1.34843,2.14125 -3.4701,2.45165 -4.90602,0.72148 -1.87055,-2.25388 -0.0178,-4.85767 2.19328,-4.84831 z"
       id="path2836"
       inkscape:connector-curvature="0" />
    <path
       style="fill:#000000"
       d="m 436.53888,297.61005 c -10.92023,-0.67235 -24.54516,-1.86171 -30.2776,-2.64306 -13.5237,-1.84333 -41.31828,-8.63418 -43.9008,-10.72598 -1.55457,-1.25916 -1.97954,-2.53405 -1.8778,-5.63344 0.10601,-3.22984 1.93267,-7.2188 9.42838,-20.58914 5.11327,-9.12074 9.16355,-16.7165 9.00058,-16.87947 -0.16295,-0.16296 -1.316,0.0913 -2.56232,0.56524 -1.24631,0.47383 -4.54192,1.1459 -7.32357,1.49345 -4.27392,0.53398 -5.59424,0.31526 -8.52107,-1.41163 -1.90493,-1.12392 -3.30752,-2.51142 -3.11689,-3.08331 0.19063,-0.57189 2.38988,-1.79617 4.88721,-2.72061 4.44958,-1.64712 8.69628,-4.76519 8.69628,-6.38507 0,-0.44938 -0.3713,-0.58753 -0.82515,-0.30705 -0.45383,0.2805 -2.63557,-0.13487 -4.84831,-0.92302 -11.38599,-4.05553 -23.89669,-6.82842 -28.23172,-6.25733 -5.04812,0.66502 -15.23598,5.46082 -21.84858,10.28492 -5.09131,3.71427 -5.12547,3.51074 -0.98302,-5.85609 4.56525,-10.32284 18.36227,-17.96617 32.43082,-17.96617 5.37076,0 7.25856,0.44889 11.44403,2.72113 2.75676,1.49663 6.86499,4.61339 9.12941,6.92616 2.2644,2.31276 4.65391,4.20502 5.31005,4.20502 2.11098,0 1.30185,-5.4073 -1.66096,-11.10021 -1.56966,-3.01598 -2.71248,-5.8974 -2.5396,-6.40313 0.1777,-0.51984 2.21669,-0.0265 4.69086,1.13489 4.4252,2.07723 6.73624,4.92482 12.68887,15.63481 l 2.41529,4.34555 4.0642,-6.65426 c 7.3501,-12.03418 34.43967,-53.58262 40.46536,-62.0635 3.2479,-4.57127 7.20997,-9.42223 8.80458,-10.77992 1.59461,-1.35769 2.62572,-2.74211 2.29137,-3.07647 -0.88719,-0.8872 -14.65055,1.36186 -17.57326,2.87161 -3.16077,1.63273 -6.25352,1.59857 -8.48906,-0.0938 -1.66791,-1.26263 -1.61193,-1.39862 1.2235,-2.97197 6.12582,-3.39913 6.35025,-3.71076 3.46562,-4.81201 -3.61232,-1.37905 -10.18467,-1.21692 -17.14083,0.42285 -6.29775,1.48457 -8.42583,0.89385 -8.42583,-2.33881 0,-3.18013 1.21857,-3.61072 17.54627,-6.20005 l 3.2322,-0.51258 -2.77045,-0.80396 c -6.50398,-1.88742 -27.07295,-4.60302 -31.28398,-4.13026 -2.47655,0.27804 -5.28165,0.0888 -6.23353,-0.42071 -1.58586,-0.84873 -1.61308,-1.10576 -0.32516,-3.07138 0.77305,-1.17981 3.15064,-2.93136 5.28353,-3.89232 3.45863,-1.55826 6.2276,-1.74345 25.60646,-1.71257 16.96059,0.0271 23.04444,0.36596 27.72573,1.54456 3.29847,0.83046 6.11243,1.39473 6.25323,1.25395 0.14079,-0.1408 -0.77909,-2.49007 -2.04416,-5.22061 -2.96811,-6.40637 -1.97172,-7.58686 3.80659,-4.5099 5.68063,3.02497 14.26201,11.88633 17.27211,17.83567 2.6896,5.3159 3.0369,9.10221 1.1641,12.69113 -1.12384,2.15365 -1.04402,2.58434 0.80933,4.36815 10.00784,9.63222 28.45436,37.52901 41.54399,62.82732 l 10.15836,19.63304 3.23221,-0.48773 c 1.77771,-0.26825 5.56213,-0.7589 8.40982,-1.09034 l 5.17762,-0.60263 0.65101,5.75424 c 0.35805,3.16484 0.46544,5.93984 0.23861,6.16666 -0.22681,0.22682 -3.18102,0.87119 -6.56489,1.4319 -5.06798,0.8398 -6.04292,1.27904 -5.53088,2.49187 1.95285,4.62555 6.99883,20.2033 8.69052,26.82893 3.6148,14.15778 2.38814,20.72351 -4.62591,24.76028 -4.25928,2.45132 -7.75975,3.25826 -24.72912,5.70064 -15.38295,2.21405 -32.21671,2.3307 -62.98365,0.43646 z"
       id="path2914"
       inkscape:connector-curvature="0" />
    <path
       style="fill:#ffcc00;fill-opacity:1"
       d="m 494.25682,294.45427 c 15.7828,-2.17103 27.98845,-4.92767 27.49636,-6.21006 -0.73854,-1.92458 -9.88829,-6.20529 -19.27491,-9.01772 l -8.40135,-2.51723 -4.06034,2.56316 c -5.29176,3.34056 -8.22135,3.23558 -13.39517,-0.47997 -4.01864,-2.88597 -4.53117,-3.01277 -9.92381,-2.45506 -12.90436,1.33455 -31.59379,7.07117 -39.01844,11.97646 -6.29668,4.16008 -6.25009,5.19438 0.24051,5.34076 2.96286,0.0669 10.16605,0.41054 16.00711,0.7638 16.51957,0.99914 43.1891,1.01815 50.33004,0.0358 z"
       id="path2912"
       inkscape:connector-curvature="0" />
    <path
       style="fill:#ffff00"
       d="m 423.76184,288.97269 c 2.20215,-2.00029 5.69126,-4.48351 7.75359,-5.51822 4.95035,-2.48374 25.66598,-8.12728 32.79192,-8.9335 l 5.6385,-0.63792 -4.2364,-4.05946 c -2.33003,-2.2327 -4.23643,-4.50417 -4.23643,-5.0477 0,-3.22647 16.87462,-22.95806 19.63392,-22.95806 0.91609,0 3.10676,0.60215 4.86815,1.3381 3.68859,1.54119 3.9466,1.23028 1.31928,-1.58982 -3.77316,-4.04999 -2.33741,-5.41811 10.07014,-9.59587 6.28049,-2.11472 12.2707,-4.06764 13.31157,-4.33982 1.39463,-0.36472 1.64593,-0.81086 0.95527,-1.69601 -0.51548,-0.66059 -4.28096,-7.66012 -8.36776,-15.55449 -17.7222,-34.23351 -39.34539,-65.1075 -46.93309,-67.0119 -3.94098,-0.98912 -8.87535,1.52839 -14.48396,7.38972 -5.39794,5.64115 -29.05232,39.5272 -34.87832,49.9649 -1.70103,3.04752 -6.06505,10.31997 -9.69781,16.16103 -7.22681,11.61985 -19.6596,33.32583 -26.97682,47.09785 -5.13264,9.66037 -6.56787,14.82482 -4.57867,16.47571 3.72064,3.08786 40.23919,11.62473 51.58251,12.05833 1.65503,0.0633 3.77119,-1.09651 6.46441,-3.54287 z"
       id="path2910"
       inkscape:connector-curvature="0" />
    <path
       style="fill:#000000"
       d="m 460.28186,253.34074 c -2.49044,-3.4222 -5.82722,-3.86613 -10.4854,-1.39496 -2.17698,1.15488 -4.61721,1.84686 -5.42275,1.53774 -0.80555,-0.30911 -2.31474,-2.48383 -3.35376,-4.8327 -2.06562,-4.66972 -1.80038,-11.03188 0.61703,-14.80006 1.22449,-1.90871 0.98024,-2.05365 -8.61422,-5.1112 -7.86149,-2.5053 -9.91804,-3.51677 -10.08836,-4.96174 -0.28734,-2.43793 5.47494,-11.89413 7.48358,-12.28095 0.87922,-0.16933 9.3691,3.61951 18.8664,8.41962 28.00223,14.15286 28.36774,14.43701 25.98139,20.19816 -0.82719,1.99703 -1.61852,2.64475 -2.84073,2.32513 -1.32983,-0.34775 -1.90354,0.33467 -2.66798,3.17359 -0.88745,3.29575 -5.78842,10.09759 -7.22533,10.02775 -0.32833,-0.0159 -1.34077,-1.05113 -2.24987,-2.30038 z"
       id="path2908"
       inkscape:connector-curvature="0" />
    <path
       style="fill:#ffffff"
       d="m 465.90985,248.97485 c 2.72314,-4.4981 3.36247,-7.254 1.89554,-8.17097 -0.93403,-0.58385 -1.37078,-0.0252 -1.71492,2.19314 -0.37385,2.40991 -0.93903,3.03154 -2.96913,3.2656 -2.06508,0.23811 -2.61834,-0.15301 -3.13642,-2.21722 -0.34598,-1.37848 -0.18036,-3.22482 0.36805,-4.10296 0.879,-1.40751 0.0508,-1.93754 -6.9926,-4.47442 -9.4843,-3.4161 -10.4266,-3.01182 -11.07023,4.74947 -0.35395,4.26814 -0.0963,5.32389 1.85226,7.5892 2.18301,2.5379 2.3415,2.57668 4.46157,1.09171 3.29989,-2.31132 8.57536,-1.97665 11.6632,0.73988 1.42511,1.25375 2.86888,2.29268 3.20839,2.30872 0.3395,0.016 1.43494,-1.32141 2.43429,-2.97215 z"
       id="path2906"
       inkscape:connector-curvature="0" />
    <path
       style="fill:#803300"
       d="m 474.42471,239.44899 c 0.49534,-1.30285 0.90063,-2.69823 0.90063,-3.10083 0,-0.86707 -17.95758,-10.37994 -33.61883,-17.80926 -12.53619,-5.94691 -12.64953,-5.93675 -16.43042,1.47139 -1.49051,2.92043 -1.60113,3.73763 -0.59436,4.39039 0.68038,0.44113 7.67837,2.8839 15.5511,5.42837 7.87273,2.54447 18.26195,6.2402 23.08718,8.21276 4.82521,1.97255 9.09509,3.6291 9.4886,3.68124 0.3935,0.052 1.12075,-0.9712 1.6161,-2.27406 z"
       id="path2904"
       inkscape:connector-curvature="0" />
    <path
       style="fill:#ffff00"
       d="m 527.11051,284.68251 c 2.89726,-3.08795 2.77402,-8.86976 -0.42156,-19.7775 -3.04317,-10.38755 -9.06727,-25.17904 -10.43334,-25.61792 -0.74722,-0.24005 -1.0884,1.26452 -1.0884,4.79963 0,3.69869 -0.57425,6.07843 -2.03844,8.44756 l -2.03846,3.29829 6.3083,6.357 c 3.46954,3.49635 5.98996,6.67531 5.60089,7.06438 -0.38906,0.38906 -4.44477,0.58738 -9.01267,0.44075 -7.73977,-0.24848 -8.58412,-0.0906 -12.3999,2.32014 -2.25203,1.42274 -4.09534,2.80355 -4.09625,3.06851 -9.1e-4,0.26496 4.25794,1.83993 9.4641,3.49995 5.20616,1.66001 11.12801,4.21427 13.15968,5.67612 2.03167,1.46185 3.93319,2.69196 4.22559,2.7336 0.29239,0.0416 1.5391,-0.9981 2.77046,-2.31051 z"
       id="path2902"
       inkscape:connector-curvature="0" />
    <path
       style="fill:#ffcc00;fill-opacity:1"
       d="m 486.20598,277.32608 c 4.07238,-1.69757 14.977,-8.67074 14.977,-9.57731 0,-0.90233 -12.12431,-4.69074 -15.01207,-4.69074 -2.98581,0 -6.4306,1.2705 -11.55634,4.26219 -4.62646,2.70029 -4.4278,3.64357 1.75456,8.33114 4.64004,3.51814 5.18998,3.61178 9.83685,1.67472 z"
       id="path2900"
       inkscape:connector-curvature="0" />
    <path
       style="fill:#ffffff"
       d="m 474.90991,262.5621 2.72414,-1.20103 -2.94983,-0.0749 c -3.84362,-0.0978 -8.26416,3.5097 -7.31901,5.97277 0.60259,1.57028 0.84316,1.49239 2.74057,-0.88716 1.14398,-1.43471 3.30585,-3.14902 4.80413,-3.80959 z"
       id="path2898"
       inkscape:connector-curvature="0" />
    <path
       style="fill:#ffcc00;fill-opacity:1"
       d="m 517.15624,265.39577 c -0.91257,-1.25383 -1.92564,-2.29275 -2.25129,-2.30872 -0.32563,-0.0159 -2.61124,-1.70497 -5.07917,-3.75334 -4.72106,-3.91851 -21.00949,-12.3304 -25.72732,-13.28646 -3.23312,-0.65519 -4.95688,0.65244 -12.07644,9.16114 -7.09976,8.48504 -7.70552,9.59508 -2.84965,5.22195 3.47091,-3.12586 4.89864,-3.87031 6.4588,-3.36771 1.10158,0.35487 4.4963,1.25909 7.54382,2.00937 3.04749,0.75028 10.31997,2.58756 16.16102,4.08285 5.84106,1.49529 12.49015,3.07862 14.77579,3.51849 2.28563,0.43988 4.27898,0.84529 4.42966,0.90094 0.1507,0.0556 -0.47266,-0.92469 -1.38522,-2.17851 z"
       id="path2896"
       inkscape:connector-curvature="0" />
    <path
       style="fill:#ffffff"
       d="m 511.06506,240.33734 c -4.57733,0.0845 -19.10463,2.82835 -19.10463,3.80938 0,1.6074 6.14502,4.12684 10.04291,4.12684 2.34666,0 4.08014,0.61547 5.19462,1.84697 2.01529,2.22689 2.64335,2.29153 4.53086,0.40403 1.57785,-1.57784 2.03452,-9.16007 0.60605,-10.04293 -0.1758,-0.10863 -0.6159,-0.15638 -1.26981,-0.14429 z m -2.02012,1.47181 c 2.08187,0 3.47926,3.35375 2.30872,5.54092 -0.54366,1.01584 -1.58258,1.84698 -2.30872,1.84698 -0.72614,0 -1.76507,-0.83114 -2.30872,-1.84698 -1.17054,-2.18717 0.22685,-5.54092 2.30872,-5.54092 z"
       id="path2894"
       inkscape:connector-curvature="0" />
    <path
       style="fill:#803300"
       d="m 513.1883,238.58563 c 9.9044,-1.7745 18.15909,-3.22769 18.34373,-3.22929 0.55156,-0.005 -0.89764,-8.72198 -1.56605,-9.42015 -1.01359,-1.05874 -20.13656,3.46122 -32.0018,7.56403 -6.08764,2.105 -11.21205,3.97088 -11.38755,4.14639 -0.17549,0.17549 0.14477,1.18581 0.71171,2.24516 1.4337,2.6789 4.52839,2.52285 25.89996,-1.30614 z"
       id="path2888"
       inkscape:connector-curvature="0" />
    <path
       style="fill:#000000"
       d="m 146.56745,576.27525 c -2.28563,-0.72017 -4.92402,-1.31574 -5.86309,-1.32345 -0.93908,-0.008 -3.01692,-0.57531 -4.61744,-1.26137 -1.60051,-0.68603 -5.40343,-2.21004 -8.45095,-3.3867 -20.33906,-7.85299 -40.586276,-30.09245 -47.487734,-52.16041 -1.111915,-3.55542 -2.430111,-7.78492 -2.92932,-9.39885 -0.499209,-1.61395 -1.156538,-5.14627 -1.460727,-7.84965 -1.017091,-9.03887 -2.23638,-8.93022 -11.879875,1.05873 -3.447747,3.57122 -6.837619,6.49316 -7.533051,6.49316 -2.295724,0 -10.437899,-4.62342 -10.437899,-5.927 0,-0.70317 1.558384,-2.2053 3.463078,-3.33812 7.616525,-4.5299 15.00057,-8.28114 16.300859,-8.28114 0.755301,0 2.504958,-0.97344 3.88814,-2.16319 2.978753,-2.56222 2.500987,-5.2247 -0.937534,-5.2247 -1.252674,0 -3.447451,-0.45383 -4.877296,-1.00851 -1.429836,-0.55468 -6.542058,-1.60882 -11.36048,-2.34253 -4.818423,-0.73373 -9.147344,-1.7206 -9.619809,-2.19307 -0.529721,-0.52973 -0.23946,-2.37536 0.757177,-4.8145 2.843443,-6.95893 3.801683,-8.55348 5.315379,-8.84499 1.553048,-0.29909 12.856437,4.70121 14.859139,6.57325 10.076158,9.41881 11.116818,9.49978 12.122477,0.94315 0.748496,-6.36849 4.625913,-20.53751 7.163128,-26.17578 6.122148,-13.60482 7.815228,-16.41263 16.012548,-26.55552 10.88446,-13.46773 28.36005,-26.06086 45.0596,-32.47047 3.4093,-1.30854 4.06063,-3.38986 2.09967,-6.70949 -2.96002,-5.01091 -0.18241,-11.86787 6.13995,-15.15738 3.34596,-1.74091 14.29128,-1.68313 17.69767,0.0934 4.12662,2.15217 7.82742,1.79026 9.0462,-0.88467 1.20092,-2.63571 5.9144,-5.12592 9.68843,-5.11853 10.13283,0.0199 19.7589,8.63046 27.17641,24.3096 1.48274,3.13421 2.69622,6.39892 2.69662,7.25489 4e-4,0.85598 3.65425,5.26239 8.11964,9.79204 7.26651,7.37104 17.73873,21.0881 17.73873,23.23509 0,0.45161 0.6178,1.99763 1.37288,3.43556 2.22434,4.2359 5.09153,11.2003 5.09153,12.3673 0,0.59461 0.60084,3.00693 1.33517,5.36072 3.04221,9.75113 4.2292,18.37901 4.2176,30.65652 l -0.0119,12.52457 4.15173,5.58695 c 5.22858,7.03605 7.2826,12.3945 5.62176,14.66584 -1.10792,1.51517 -1.39236,1.51355 -5.43647,-0.031 -2.34705,-0.89636 -4.85774,-1.40318 -5.57931,-1.12629 -0.72156,0.27689 -2.04405,2.92467 -2.93885,5.88397 -2.65492,8.78034 -10.06561,23.35992 -15.64341,30.77641 -12.54599,16.68167 -27.28922,26.24693 -49.89872,32.37379 -8.2039,2.22314 -33.54075,2.4516 -40.1717,0.36224 z"
       id="path2951"
       inkscape:connector-curvature="0" />
    <path
       style="fill:#6dc8eb;fill-opacity:0.94117647"
       d="m 186.73915,567.97581 c 22.58876,-5.38019 42.53247,-19.93531 53.10312,-38.75525 3.38134,-6.02011 8.30878,-18.95633 8.30878,-21.8134 0,-3.01439 -2.01974,-3.51274 -5.02481,-1.23981 -0.98595,0.74574 -2.57119,1.35587 -3.52276,1.35587 -0.95158,0 -3.67724,0.77456 -6.05703,1.72125 -2.3798,0.94667 -5.98917,2.15372 -8.02084,2.6823 -2.03167,0.5286 -7.64186,1.99867 -12.46707,3.26684 -14.50945,3.81338 -20.95542,5.25843 -23.45638,5.25843 -1.30613,0 -4.1607,0.47766 -6.34347,1.06147 -3.63709,0.97278 -4.27484,0.86649 -7.63202,-1.27194 -3.50918,-2.2352 -20.74782,-19.3473 -20.74782,-20.59546 0,-0.33133 -1.4545,-2.30165 -3.23221,-4.37852 -1.77771,-2.07686 -3.2322,-4.13441 -3.2322,-4.57233 0,-0.43794 -0.40931,-1.29817 -0.90958,-1.91163 -4.06301,-4.98239 -5.55483,-7.0128 -5.55483,-7.56022 0,-0.35051 -1.86213,-3.00749 -4.13805,-5.90438 -5.91958,-7.53464 -8.05545,-14.27623 -7.69439,-24.28621 0.24772,-6.86723 0.59281,-8.33071 2.42379,-10.27867 1.17421,-1.24923 2.69539,-4.08724 3.38039,-6.30672 2.25509,-7.30677 4.06617,-10.69103 7.8023,-14.57957 15.96586,-16.61728 48.28119,-6.3713 50.59441,16.04156 0.43376,4.20279 0.83927,5.12273 2.25811,5.12273 1.19589,0 2.39698,-1.49579 3.89317,-4.84831 2.4747,-5.54511 3.88631,-6.97312 10.18673,-10.30526 8.02312,-4.24323 21.14094,-3.06264 26.72029,2.40479 1.19472,1.17078 3.11588,2.95981 4.26926,3.97566 l 2.09705,1.84696 -1.48635,-3.56717 c -2.27825,-5.46773 -7.7515,-14.25879 -13.01547,-20.90523 -9.12313,-11.51915 -10.42925,-13.43585 -13.75658,-20.18715 -1.8423,-3.73812 -3.34965,-7.12481 -3.34965,-7.52597 0,-0.74378 -4.21394,-7.20679 -8.33387,-12.78178 -2.59824,-3.51589 -7.98948,-6.60295 -11.53139,-6.60295 -1.58367,0 -3.468,1.17088 -5.57331,3.46309 -3.59022,3.90894 -4.07991,7.33097 -1.68486,11.77445 6.65721,12.3511 9.60531,20.57399 3.80754,10.6201 -5.60956,-9.63077 -12.9087,-15.1397 -23.90207,-18.03969 -4.06199,-1.07151 -5.19742,-1.05424 -8.07503,0.12289 -4.05854,1.6602 -6.91149,5.26119 -6.12688,7.73329 0.76599,2.41344 8.2545,7.78834 15.39893,11.05267 4.67875,2.13773 5.50233,2.80898 4.11561,3.35432 -1.0319,0.40579 -4.31788,-0.15052 -8.11767,-1.37433 -6.22241,-2.00406 -11.12055,-2.00709 -12.35628,-0.008 -0.28976,0.46884 -1.22957,0.85331 -2.08844,0.85438 -3.73708,0.005 -25.14004,12.56169 -32.56359,19.10489 -15.21627,13.4118 -25.655092,29.52511 -31.385357,48.44627 -2.706502,8.93679 -2.898679,10.51851 -2.956526,24.33387 -0.06871,16.41772 1.17028,22.94973 6.775846,35.7215 4.043297,9.21227 7.112897,13.90475 14.424107,22.05007 13.30997,14.82844 26.33943,21.91848 51.53181,28.04128 3.86404,0.93913 26.98709,-0.32071 33.24554,-1.81135 z"
       id="path2949"
       inkscape:connector-curvature="0" />
    <path
       style="fill:#ffcc00;fill-opacity:1"
       d="m 192.25897,516.24674 c 4.07496,-0.78916 10.73356,-2.05521 14.79689,-2.81346 9.62905,-1.79679 30.0227,-6.81692 32.09118,-7.89962 3.76035,-1.96822 1.24569,-4.73716 -5.32706,-5.86576 -2.02231,-0.34725 -5.75478,-1.19072 -8.29437,-1.87438 -2.53959,-0.68365 -8.98092,-2.1076 -14.31406,-3.16432 -5.33313,-1.05671 -11.56668,-2.32367 -13.8523,-2.81545 -4.89429,-1.05309 -32.10165,-5.09644 -40.40255,-6.0043 -5.23126,-0.57216 -5.7718,-0.47095 -5.7718,1.08053 0,2.02801 14.18015,20.1371 20.67622,26.40504 4.07334,3.93029 4.98532,4.38656 8.76754,4.38656 2.32173,0 7.55537,-0.64568 11.63031,-1.43484 z"
       id="path2947"
       inkscape:connector-curvature="0" />
    <path
       style="fill:#ffcc00;fill-opacity:1"
       d="m 262.08844,500.82086 c -1.46706,-3.85864 -21.9339,-23.90049 -31.9432,-31.27992 -14.02856,-10.34262 -28.07012,-17.42695 -34.54126,-17.42695 -5.11511,0 -25.4094,9.5046 -37.03118,17.34315 -9.30594,6.27655 -11.08186,7.94333 -11.08186,10.4008 0,1.26131 1.35148,1.62887 7.61877,2.07198 4.19032,0.29626 11.56668,1.17682 16.39191,1.9568 4.82521,0.77996 12.92882,2.06079 18.00799,2.84626 5.07917,0.78549 11.93607,2.04217 15.23753,2.79262 19.82431,4.50621 30.72085,7.16082 36.016,8.77422 16.70783,5.0907 20.83907,6.15879 21.50541,5.55998 0.3998,-0.35928 0.31875,-1.72681 -0.18011,-3.03894 z"
       id="path2945"
       inkscape:connector-curvature="0" />
    <path
       style="fill:#ff0000"
       d="m 251.46949,477.61813 c 0.26952,-0.70234 -0.17191,-3.55399 -0.98096,-6.33699 -1.28507,-4.42046 -1.90509,-5.24143 -4.90557,-6.49528 -9.97408,-4.16802 -19.5956,-5.67197 -19.5956,-3.063 0,0.71362 1.97394,2.43499 4.38656,3.82527 2.4126,1.39027 6.2455,4.02707 8.51755,5.85953 9.30356,7.50358 11.63926,8.65683 12.57802,6.21047 z"
       id="path2943"
       inkscape:connector-curvature="0" />
    <path
       style="fill:#ff0000"
       d="m 148.96391,472.32905 c 0.96759,-1.07174 5.18769,-4.04498 9.37801,-6.6072 6.13853,-3.75349 7.61876,-5.09 7.61876,-6.87901 0,-1.22123 -0.36604,-1.99418 -0.81343,-1.71768 -1.48662,0.91878 -14.3205,-3.19588 -21.67083,-6.94786 -6.75034,-3.4457 -8.98384,-4.63899 -9.36444,-2.31151 -0.59313,3.62719 -2.67868,14.78369 4.05147,21.87757 4.83947,5.10102 7.90947,5.78794 10.80046,2.58569 z"
       id="path2941"
       sodipodi:nodetypes="cssssssc"
       inkscape:connector-curvature="0" />
    <path
       style="fill:#ffffff"
       d="m 245.14677,456.85196 c 0.36822,-1.33609 0.62741,-4.50709 0.576,-7.04669 -0.31306,-15.46453 -17.32227,-26.90159 -31.54483,-21.21085 -8.77584,3.5114 -16.17583,16.95522 -11.50865,20.90813 3.2499,2.75253 13.68423,6.42299 20.79327,7.31438 8.19544,1.02762 16.51739,2.51742 17.05275,3.05279 1.04436,1.04437 4.05207,-0.91539 4.63146,-3.01776 z"
       id="path2939"
       inkscape:connector-curvature="0" />
    <path
       style="fill:#000000"
       d="m 229.91217,451.49118 c -4.17643,-2.91334 -1.23355,-9.0615 4.04488,-8.45042 5.90729,0.68391 6.46553,10.05943 0.59236,9.94828 -1.40766,-0.0267 -3.49442,-0.70069 -4.63724,-1.49786 z"
       id="path2937"
       inkscape:connector-curvature="0" />
    <path
       style="fill:#ffffff"
       d="m 175.6573,455.72185 c 2.03167,-0.5496 5.35623,-1.76045 7.3879,-2.69079 2.03167,-0.93033 4.39946,-1.91145 5.26175,-2.18026 2.97514,-0.92748 4.64958,-5.83719 3.9745,-11.65375 -1.68051,-14.47941 -15.1721,-25.02206 -30.45149,-23.79558 -12.01494,0.96444 -20.12097,8.72309 -22.78919,21.81258 l -1.19832,5.87851 2.7464,2.24732 c 6.28823,5.14549 16.49014,8.87591 30.91277,11.30353 0.25394,0.0427 2.124,-0.37196 4.15568,-0.92156 z"
       id="path2935"
       inkscape:connector-curvature="0" />
    <path
       style="fill:#000000"
       d="m 178.127,445.35919 c -2.66499,-2.83675 -2.57181,-6.99453 0.21601,-9.63709 4.15738,-3.94079 8.67265,-1.99875 9.4881,4.08087 0.40919,3.05081 0.12855,4.16437 -1.44649,5.7394 -2.55163,2.55163 -5.75517,2.48057 -8.25762,-0.18318 z"
       id="path2931"
       inkscape:connector-curvature="0" />
    <path
       style="fill:#000000"
       d="m 419.23028,552.60595 c -27.65761,-1.9685 -49.90861,-14.40977 -58.23601,-32.56162 -0.64873,-1.41405 -1.23574,-2.63504 -1.30448,-2.71333 -0.0687,-0.0781 -1.02358,0.50328 -2.12186,1.29232 -2.57813,1.8522 -6.91498,3.89148 -8.94582,4.2065 l -1.59456,0.24732 1.4774,-2.94087 c 1.64323,-3.27095 2.28496,-5.71534 2.27626,-8.67045 -0.009,-2.93132 -0.17439,-3.0588 -3.06532,-2.35778 -3.4188,0.82902 -12.67341,1.15968 -16.83995,0.60164 -3.87435,-0.5189 -8.53989,-1.9127 -10.58723,-3.16285 l -1.40994,-0.86096 7.87402,0 c 7.3934,0 12.2468,-0.50406 12.2468,-1.27194 0,-0.14708 -1.03985,-1.02466 -2.3108,-1.95018 -8.10894,-5.90509 -14.00628,-16.57937 -15.77652,-28.55579 -0.89568,-6.05975 -0.54781,-15.05437 0.8215,-21.24134 0.16857,-0.76158 0.43217,-0.37141 1.48209,2.19345 3.09714,7.56621 8.22592,15.03177 15.13918,22.03699 3.40325,3.44851 8.79815,7.6042 9.12001,7.02514 0.0887,-0.15965 -7.1e-4,-1.83024 -0.19865,-3.71244 -0.57374,-5.45405 -0.13423,-13.4289 0.97443,-17.68117 0.51798,-1.98674 1.15516,-4.1256 1.41593,-4.753 l 0.47413,-1.14072 0.31459,1.68249 c 0.90681,4.84983 3.34514,9.76996 6.42723,12.96904 1.2024,1.24805 2.34555,2.26915 2.54035,2.26915 0.1948,0 0.82384,-1.58273 1.39788,-3.5172 4.67135,-15.74184 11.71574,-28.8696 21.47511,-40.0203 1.28126,-1.46393 2.27525,-2.82659 2.20881,-3.02815 -0.12133,-0.36821 -1.60772,-1.32199 -9.85776,-6.32537 -2.45731,-1.49028 -4.46782,-2.82401 -4.46782,-2.96385 0,-0.30221 10.12689,-9.68143 10.64531,-9.85933 0.19676,-0.0676 1.943,1.38691 3.88059,3.23206 1.93759,1.84513 4.73605,4.50939 6.21883,5.92056 l 2.69591,2.56579 3.17573,-2.08934 c 4.24923,-2.7956 9.20243,-5.17987 14.26763,-6.86796 2.29597,-0.76516 4.20972,-1.42186 4.25276,-1.45931 0.043,-0.0376 -1.03761,-1.43027 -2.40141,-3.09513 -3.11975,-3.80848 -6.27432,-8.25641 -7.31471,-10.31364 -0.79193,-1.566 -0.793,-1.60479 -0.0993,-3.61229 1.56344,-4.52449 5.89423,-12.49427 6.78267,-12.48177 0.16106,0.002 0.78153,1.32836 1.37885,2.94686 1.55146,4.20402 3.38417,7.34695 5.81566,9.97323 1.16373,1.25698 2.25807,2.2854 2.43183,2.2854 0.17378,0 0.21927,-2.09607 0.10108,-4.65793 -0.36614,-7.93511 0.93987,-25.13844 2.3936,-31.53 0.80462,-3.53762 1.50697,-4.29348 5.01684,-5.39907 6.9661,-2.19425 20.53109,-3.22596 22.91486,-1.7428 0.46738,0.29079 0.47008,0.46117 0.0186,1.18883 -3.57866,5.77009 -9.33568,20.60976 -11.27716,29.06889 -1.0574,4.60715 -1.65245,11.29727 -1.03855,11.67669 0.21115,0.13049 2.16041,-1.48648 4.33174,-3.59329 8.00858,-7.77051 18.47242,-15.54429 20.92326,-15.54429 0.83181,0 1.356,0.37286 2.27208,1.61602 2.97219,4.03355 5.12241,10.58979 4.21752,12.85974 -0.31135,0.78103 -0.81074,1.07148 -2.48757,1.44675 -2.82329,0.6318 -8.52301,3.53874 -12.40047,6.32441 -5.28645,3.79786 -14.98577,12.42541 -14.44695,12.85052 0.0915,0.0722 2.21971,0.77778 4.72929,1.56794 5.51597,1.73669 11.93871,4.72214 15.87849,7.38069 1.60002,1.07965 3.00003,1.96301 3.11118,1.96301 0.1111,0 3.93543,-1.84925 8.49852,-4.10942 12.92019,-6.39971 26.28308,-11.433 36.5823,-13.77917 15.08377,-3.4361 26.3873,-3.27426 40.43217,0.57889 17.85086,4.89728 32.03199,15.36491 39.5795,29.21512 3.08846,5.66755 5.75457,13.80261 6.51301,19.87298 l 0.27195,2.17645 -1.47683,-0.23254 c -20.76784,-3.27031 -52.00166,-3.81602 -78.85571,-1.37772 -9.71183,0.8818 -23.64518,2.61464 -24.05685,2.99186 -0.16055,0.14708 0.40012,2.10978 1.24594,4.36153 0.84579,2.25176 2.0461,5.90431 2.66738,8.11679 0.62124,2.21246 1.17276,4.04763 1.22559,4.07816 0.0528,0.0306 2.23491,0.45176 4.84905,0.93609 22.2987,4.13136 48.42448,11.68072 63.49664,18.34812 8.05741,3.56429 17.82562,9.4 17.5896,10.50831 -0.0522,0.24556 0.21245,0.44645 0.58829,0.44645 0.76564,0 2.80804,2.00982 4.58078,4.50779 1.13815,1.60374 1.1546,1.68433 0.52218,2.55468 -0.35917,0.49426 -0.90973,0.90524 -1.22342,0.91323 -0.3137,0.009 -0.98588,0.62466 -1.49377,1.37035 -1.38564,2.0344 -6.36845,5.83988 -11.36287,8.67803 -9.5197,5.40973 -20.57024,8.59273 -29.83156,8.59273 -4.73354,0 -8.51502,-1.17335 -31.73019,-9.84566 -7.27484,-2.7176 -13.45956,-4.99345 -13.74382,-5.05745 -0.34096,-0.0768 -0.73905,0.65988 -1.16996,2.16508 -2.98131,10.4138 -9.98417,19.19417 -20.05895,25.15053 -11.03144,6.52199 -25.37623,10.06298 -45.17657,11.15172 -7.63865,0.42 -9.13181,0.41724 -15.39973,-0.0288 z"
       id="path2991"
       inkscape:connector-curvature="0" />
    <path
       style="fill:#008000"
       d="m 443.56566,549.84057 c 31.30396,-3.60475 48.09317,-14.37346 54.11204,-34.70779 l 0.58025,-1.96031 -6.14773,-2.18046 c -13.75507,-4.87861 -27.03995,-9.05161 -38.03731,-11.94812 l -5.65299,-1.48889 -3.28264,1.09858 c -4.55786,1.52536 -9.61113,2.13691 -12.67566,1.53397 -9.24464,-1.81876 -14.55592,-9.60174 -13.87703,-20.33495 0.81714,-12.91992 8.69325,-32.3047 15.70826,-38.66155 3.09912,-2.80833 16.04186,-11.56691 24.36847,-16.4906 5.81733,-3.43985 5.82429,-2.87265 -0.0762,-6.21086 -15.51266,-8.7764 -34.79309,-10.47692 -50.0016,-4.41012 -4.59019,1.83108 -12.50166,6.3026 -12.53597,7.08527 -0.0145,0.33351 4.00654,4.18806 15.19765,14.56798 4.70548,4.36438 9.79035,9.14173 11.29971,10.61629 l 2.74431,2.68106 -0.88348,1.00328 -0.88346,1.00328 -1.76465,-1.09834 c -0.97056,-0.60409 -1.90968,-1.09834 -2.08699,-1.09834 -0.1773,0 0.0232,0.98386 0.44508,2.18637 1.08364,3.08738 1.30586,9.33698 0.44954,12.64301 -1.92548,7.43382 -7.60398,13.69259 -14.79472,16.30663 -2.37874,0.86474 -3.28946,0.98246 -7.64363,0.98799 -5.53295,0.007 -7.29966,-0.41343 -11.59733,-2.76021 -7.36573,-4.02216 -12.31788,-13.30973 -11.60182,-21.75898 0.26625,-3.14165 1.62219,-7.61281 3.04315,-10.03461 3.42029,-5.82948 10.34701,-10.48106 16.57717,-11.13224 1.23639,-0.12922 2.24799,-0.3564 2.24799,-0.50483 0,-0.38495 -9.46703,-6.16519 -9.8564,-6.01796 -0.17772,0.0673 -1.33751,1.24548 -2.5773,2.61836 -16.29619,18.04538 -26.00699,45.08807 -25.09697,69.89028 0.33667,9.17568 2.37208,16.05373 6.76607,22.86377 2.88383,4.46953 9.52909,11.20638 13.84391,14.0348 9.97202,6.53668 23.95175,10.96584 38.97463,12.34827 3.42296,0.31499 20.08395,-0.13669 24.71562,-0.67003 z"
       id="path2989"
       inkscape:connector-curvature="0" />
    <path
       style="fill:#ffcc00;fill-opacity:1"
       d="m 557.2575,526.2609 c 7.74415,-1.79065 16.11829,-5.44397 22.53314,-9.83034 3.40283,-2.32683 7.42,-5.82407 7.08017,-6.16389 -0.32075,-0.32078 -19.86431,-5.55799 -46.15374,-12.3681 -25.26938,-6.54589 -56.93431,-14.90782 -64.83097,-17.12027 -19.93519,-5.58534 -31.58381,-9.18289 -36.26227,-11.19924 -0.80867,-0.34852 -1.70732,-0.54271 -1.99704,-0.43154 -0.80062,0.30722 -3.4407,4.59167 -4.15553,6.74378 -1.52707,4.59763 -1.36992,10.14494 0.38553,13.60919 0.97244,1.91901 3.25489,4.11267 4.57562,4.39763 0.41827,0.0903 3.24154,0.68728 6.27397,1.32677 5.21967,1.10071 17.96353,4.35118 21.67368,5.52812 21.36115,6.77613 25.94215,8.3564 47.46329,16.37307 18.30698,6.81935 19.65181,7.30675 23.83178,8.63704 2.30047,0.7321 4.52487,1.42616 4.94313,1.54233 1.79386,0.4982 10.72248,-0.13887 14.63924,-1.04455 z"
       id="path2987"
       inkscape:connector-curvature="0" />
    <path
       style="fill:#aa0000"
       d="m 584.8208,505.28522 c -0.83425,-0.7432 -1.912,-1.6251 -2.39503,-1.9598 -0.68521,-0.4748 -0.7688,-0.6871 -0.38024,-0.96606 0.3686,-0.26465 0.32938,-0.30352 -0.15118,-0.14969 -0.38054,0.12182 -1.40754,-0.31385 -2.48177,-1.05279 -1.58289,-1.08883 -9.49491,-5.54738 -9.84425,-5.54738 -0.0682,0 -1.28271,-0.53066 -2.69884,-1.17925 -6.86736,-3.14533 -15.20094,-6.09951 -29.38447,-10.41658 -7.0081,-2.13306 -25.65429,-6.50898 -34.79198,-8.16501 -2.50961,-0.45484 -5.76066,-1.06402 -7.22457,-1.35374 -1.46393,-0.28972 -4.20166,-0.71497 -6.08385,-0.94499 -7.37111,-0.90081 -13.20815,-2.8861 -16.05956,-5.46215 -1.70239,-1.53801 -3.21862,-4.63473 -3.21862,-6.5736 0,-0.69688 -0.15579,-1.26702 -0.3462,-1.26702 -1.25609,0 -19.19387,4.42085 -26.00446,6.40892 -3.71943,1.08574 -3.77749,1.12003 -2.66168,1.5716 1.91318,0.77424 13.05243,4.40666 17.49105,5.70365 2.30046,0.67222 5.80818,1.70353 7.79491,2.29179 4.17343,1.23574 15.0376,4.17881 30.22913,8.18899 5.8557,1.54574 11.16004,2.97557 11.78745,3.17739 1.11105,0.3574 37.30176,9.34734 50.90744,12.64562 5.26891,1.27731 6.55283,1.70265 5.70362,1.88959 -0.80227,0.17659 -0.68722,0.20735 0.42924,0.11478 0.96879,-0.0804 4.71426,0.68234 10.26649,2.09048 4.80773,1.21931 9.16719,2.23709 9.68773,2.26173 0.89011,0.0422 0.85611,-0.0356 -0.57036,-1.30648 z"
       id="path2985"
       inkscape:connector-curvature="0" />
    <path
       style="fill:#ffff00"
       d="m 441.80115,498.03177 c 1.59789,-0.35109 2.90523,-0.7659 2.90523,-0.9218 0,-0.24158 -1.21741,-0.55059 -6.67679,-1.69471 -1.28407,-0.2691 -3.28665,-1.79977 -4.58959,-3.50805 -1.66205,-2.17911 -2.50641,-5.28944 -2.50448,-9.22588 0.004,-5.22142 1.42595,-9.50444 4.49474,-13.52476 1.34902,-1.76733 1.43465,-2.05179 1.70731,-5.67022 0.50949,-6.76149 0.70106,-22.63145 0.27318,-22.63145 -0.61381,0 -4.36258,4.03152 -5.95632,6.4056 -5.6313,8.38856 -10.499,22.24328 -11.30504,32.17714 -0.77377,9.53638 3.98082,17.20177 11.91247,19.20538 1.83699,0.46404 6.04876,0.1997 9.73929,-0.61125 z"
       id="path2983"
       inkscape:connector-curvature="0" />
    <path
       style="fill:#ffffff"
       d="m 400.3979,436.48706 -2.91477,0.0578 c -9.07066,0.15969 -17.31186,6.40881 -20.14355,15.32412 -1.02254,3.21933 -1.08041,8.76459 -0.14429,11.97647 2.16726,7.43611 8.03012,13.17928 15.46839,15.17982 2.74022,0.73697 7.86644,0.7649 10.70668,0.0288 13.24618,-3.43242 20.05731,-18.21538 14.05432,-30.47508 -0.56768,-1.15933 -1.3652,-2.33075 -1.78925,-2.59731 -0.42407,-0.26656 -4.02041,-2.51465 -7.99394,-4.9926 l -7.24359,-4.502 z m 11.48587,16.5362 c 1.71216,0 2.65585,0.54002 3.37649,1.93356 1.64696,3.1849 -1.65816,6.55738 -4.84831,4.96374 -3.4911,-1.74401 -2.39157,-6.8973 1.47182,-6.8973 z"
       id="path2981"
       inkscape:connector-curvature="0" />
    <path
       style="fill:#008000"
       d="m 495.94094,471.17906 c -0.0986,-0.2614 -0.6426,-2.09049 -1.2089,-4.06462 -1.00698,-3.51032 -3.48766,-10.22617 -3.96585,-10.73666 -0.13244,-0.1414 -3.06415,0.2496 -6.51481,0.86889 -3.45068,0.61928 -7.28812,1.2997 -8.52762,1.512 -1.23951,0.21233 -2.39448,0.47308 -2.56663,0.57947 -0.48601,0.30037 -0.37138,1.74282 0.29363,3.69445 1.52979,4.48971 6.51975,6.40521 22.34357,8.57705 0.17924,0.0246 0.24522,-0.16916 0.14661,-0.43058 z"
       id="path2977"
       inkscape:connector-curvature="0" />
    <path
       style="fill:#ffcc00;fill-opacity:1"
       d="m 444.8965,464.41771 c 17.07382,-4.88765 37.89749,-9.16167 56.27556,-11.55047 17.65928,-2.29536 32.95756,-3.2637 51.52258,-3.26119 16.13084,0.002 26.37015,0.5634 38.72355,2.12245 2.58066,0.32569 4.76787,0.51632 4.86054,0.42366 0.30275,-0.30273 -1.42372,-7.5649 -2.5902,-10.89548 -1.48829,-4.24938 -4.76896,-10.55891 -7.22753,-13.90032 -2.74647,-3.73265 -9.01599,-9.82273 -13.05421,-12.68056 -9.60982,-6.80077 -23.5949,-11.68182 -37.2526,-13.00176 -12.23892,-1.18283 -28.40805,2.05754 -46.19921,9.25857 -14.96867,6.05862 -33.93154,16.54475 -47.39308,26.20748 l -3.09511,2.22166 -0.23283,8.44645 c -0.43021,15.60581 -0.43594,18.14293 -0.0412,18.13807 0.20913,-0.003 2.77575,-0.69041 5.70361,-1.52856 z"
       id="path2973"
       inkscape:connector-curvature="0" />
    <path
       style="fill:#000000"
       d="m 160.46148,855.96383 c -1.79058,-0.30548 -7.35765,-1.21754 -12.37128,-2.02684 C 131.58,851.27198 116.90065,844.9916 102.32191,834.35559 89.20202,824.78395 82.681674,813.9665 78.54147,794.90323 l -2.248682,-10.35391 -4.470712,6.07086 c -2.458887,3.33891 -4.865245,6.09367 -5.347463,6.12157 -1.713233,0.0993 -8.89003,-6.72073 -8.89003,-8.44802 0,-0.9659 3.215645,-4.57635 7.145887,-8.02326 3.930233,-3.44691 7.153276,-6.68291 7.162316,-7.19109 0.0092,-0.5082 -4.818137,-1.09423 -10.727041,-1.30225 l -10.74348,-0.37823 -0.385057,-8.79014 c -0.450033,-10.2733 -0.178538,-10.41185 12.115015,-6.18226 4.168916,1.43431 7.874297,2.31343 8.234162,1.95356 0.359884,-0.35989 -1.787298,-2.90844 -4.771501,-5.66341 -6.220756,-5.74297 -6.504535,-6.9072 -2.575789,-10.56738 4.024768,-3.74967 5.242451,-3.40538 11.335563,3.20485 5.90306,6.40406 7.952471,7.24604 7.952471,3.26732 0,-3.12463 11.332911,-25.23153 16.930511,-33.02603 2.41354,-3.36082 3.68507,-6.41381 3.19888,-7.68077 -0.56204,-1.46464 0.37995,-2.71651 3.10408,-4.1252 2.15105,-1.11236 6.61031,-5.45828 9.90948,-9.65758 6.04615,-7.69579 16.7958,-17.10593 28.60634,-25.04177 l 6.40412,-4.30311 -6.6398,-6.10532 c -3.65188,-3.35791 -9.31507,-7.20558 -12.58488,-8.55039 -3.32962,-1.36941 -5.94509,-3.30443 -5.94509,-4.39844 -3e-5,-4.32256 8.82188,-15.46447 12.33869,-15.58355 0.70368,-0.0239 5.24471,4.20522 10.09117,9.39791 l 8.81174,9.44122 -2.49916,-6.51119 c -1.37453,-3.58114 -4.30402,-10.84035 -6.51,-16.13154 -2.20595,-5.29117 -4.01085,-10.01784 -4.01085,-10.50367 0,-1.395 9.3409,-6.19859 13.95097,-7.17432 3.67145,-0.77709 4.25745,-0.51519 4.78255,2.13733 1.84351,9.31284 7.68515,33.43048 8.75004,36.12523 0.8892,2.25016 1.64588,2.75001 2.64723,1.74869 1.00133,-1.00134 0.95135,-5.36858 -0.17484,-15.2784 -0.86734,-7.63196 -1.32495,-14.1283 -1.01693,-14.43632 1.16142,-1.16142 14.36605,-3.13195 15.65389,-2.33601 1.28161,0.79209 0.5762,23.17589 -1.14293,36.26693 l -0.68406,5.20896 8.5668,4.37346 c 31.87221,16.27123 60.65986,72.91452 60.65986,119.35581 0,21.84205 -5.25901,35.85695 -18.71238,49.8672 -14.8105,15.42363 -34.50686,23.58826 -58.77085,24.3619 -7.87855,0.25123 -15.78964,0.20685 -17.58023,-0.0987 z"
       id="path3802"
       inkscape:connector-curvature="0" />
    <path
       style="fill:#ffe3a4;fill-opacity:1;stroke:none"
       d="m 171.56571,801.11538 c -0.48944,0 -0.98437,0.004 -1.4766,0.0127 -27.83061,0.56913 -50.68556,14.95821 -55.29766,33.47014 10.85687,6.35353 22.00398,10.3605 34.17468,12.33445 4.87061,0.79001 10.28608,1.68846 12.02558,1.98665 1.73951,0.29821 9.41474,0.33322 17.06857,0.088 19.33781,-0.61953 35.68383,-6.09867 48.87816,-16.35794 -5.15742,-18.15234 -28.02099,-31.60937 -55.37273,-31.53392 z"
       id="path3786"
       inkscape:connector-curvature="0" />
    <path
       style="fill:#ffffff"
       d="m 175.6276,665.45854 c -0.3733,-0.002 -0.74627,0.005 -1.12066,0.0129 -8.7423,0.20056 -17.78966,3.33227 -27.42367,9.35162 -9.94133,6.21137 -21.00125,15.09133 -20.01709,16.07549 0.32172,0.32172 3.52234,-0.28316 7.12321,-1.3525 3.60085,-1.06934 7.77021,-1.62655 9.26144,-1.23657 3.75557,0.9821 5.07639,6.78946 2.04809,9.00382 -1.68807,1.23433 -2.10031,2.74018 -1.54573,5.51307 0.63714,3.18571 0.0631,7.10899 -1.41692,10.78141 3.45092,5.13882 5.56459,11.97474 5.56459,19.50185 0,0.93155 -0.0272,1.84753 -0.0902,2.75654 2.24981,-6.28167 5.20004,-13.06517 8.88789,-20.46794 9.36629,-18.80127 10.51697,-20.18453 16.71956,-20.18453 9.66844,0 24.9989,8.8495 29.31718,16.91277 2.34708,4.38255 2.78107,4.5866 9.99566,4.79173 4.15007,0.118 8.42799,0.94716 9.5062,1.84199 2.89198,2.40012 6.03748,-1.29918 6.23439,-7.34219 0.15235,-4.67455 -0.18963,-5.08122 -8.9523,-10.42072 -13.72625,-8.36409 -14.60071,-8.43678 -16.39752,-1.301 -1.88926,7.50296 -4.36568,7.94361 -3.11721,0.5539 0.884,-5.23233 0.82303,-5.36444 -2.27994,-4.58565 -2.5391,0.63727 -3.56859,0.10721 -4.99783,-2.56332 -1.61002,-3.00836 -1.53615,-3.54628 0.69558,-5.17817 3.64583,-2.66588 13.58735,-2.25997 19.26998,0.78575 2.67526,1.43385 4.86903,2.09106 4.86903,1.45554 0,-0.63549 -3.75452,-4.66922 -8.3469,-8.96516 -11.16017,-10.4398 -22.21513,-15.67375 -33.78688,-15.74061 z m 43.31884,41.69584 c 0.19456,-9.4e-4 0.39854,0.01 0.6054,0.0385 1.97061,0.28118 2.76942,1.32433 2.76942,3.63246 0,3.71497 -3.34567,5.00311 -5.68054,2.18976 -2.07446,-2.49957 -0.61286,-5.84137 2.30572,-5.86084 z m -111.63973,4.99782 c -3.35612,0 -18.496866,32.36894 -21.923484,46.87401 -2.309272,9.77535 -2.500204,28.86829 -0.360669,36.81393 3.762722,13.97369 13.925713,26.74992 28.209423,36.51767 5.41033,-18.39256 28.54926,-32.53319 56.59915,-33.10422 29.26468,-0.5955 53.86889,13.78243 58.76317,33.15576 10.23772,-7.51164 16.05661,-17.01361 19.79813,-31.37815 3.71103,-14.24767 1.96255,-41.57709 -3.99312,-62.30547 -2.60224,-9.05692 -11.03939,-26.72346 -12.36576,-25.90371 -0.506,0.31271 -1.26911,2.20179 -1.70031,4.18633 -0.60128,2.76738 -1.13025,4.51843 -1.94503,5.43579 3.26899,1.75363 5.68053,5.03292 5.68053,12.24983 0,12.60062 -2.90846,22.6145 -11.06479,26.54777 0.14839,3.61761 -1.13747,8.57414 -3.85141,14.31078 -4.25317,8.9905 -9.86188,13.61393 -20.35201,16.77112 -10.74889,3.23481 -29.91934,2.03494 -44.98048,-2.80809 -6.88792,-2.21464 -8.1691,-4.25306 -10.48516,-16.82257 -1.24955,-6.78167 -1.10107,-14.07006 0.52813,-22.23265 -3.8543,7.00763 -9.98043,11.54136 -16.88701,11.54136 -11.6688,0 -21.13774,-12.93679 -21.13774,-28.89207 0,-5.03937 0.94135,-9.76526 2.60197,-13.88573 -0.0464,-0.56608 -0.0644,-1.18989 -0.0644,-1.89352 0,-2.84842 -0.48062,-5.17817 -1.06912,-5.17817 z"
       id="path3800"
       inkscape:connector-curvature="0" />
    <path
       style="fill:#ffffff"
       d="m 158.18564,769.65169 c 5.55246,-3.10961 9.85882,-6.03968 9.56963,-6.51119 -0.28916,-0.47151 -5.5646,-0.66771 -11.72321,-0.43606 l -11.19744,0.42126 0,4.35563 c 0,4.82304 1.18002,8.79211 2.43936,8.20488 0.44892,-0.20933 5.35917,-2.92484 10.91166,-6.03452 z"
       id="path3794"
       inkscape:connector-curvature="0" />
    <path
       style="fill:#ffffff"
       d="m 137.73167,698.07326 c -0.86303,9.3e-4 -2.0143,0.16652 -3.64534,0.43796 -9.03294,1.50332 -18.96456,5.76071 -21.76891,9.32586 -2.98172,3.79062 -2.58465,9.89301 0.88879,13.73116 2.55517,2.82339 3.35959,2.8442 8.4113,0.23185 2.58476,-1.33663 5.51903,-1.78077 8.2825,-1.26235 3.59287,0.67403 4.70278,0.24693 6.99437,-2.66637 4.10068,-5.21312 5.82267,-12.13223 4.12195,-16.57786 -0.91797,-2.39949 -1.38602,-3.22299 -3.28466,-3.22025 z m -5.04937,9.11975 c 0.36124,0.005 0.71393,0.0698 1.06912,0.2061 1.32191,0.50726 1.9958,1.95254 1.73894,3.76125 -0.51926,3.6568 -5.55798,4.75459 -6.81405,1.48132 -0.96648,-2.51863 1.4773,-5.4809 4.00599,-5.44867 z"
       id="path3790"
       inkscape:connector-curvature="0" />
    <path
       style="fill:#ffe3a4;fill-opacity:1;stroke:none"
       d="m 140.52328,715.99628 c -0.713,2.14855 -3.26285,5.1459 -4.70568,7.04168 -2.01334,2.64539 -3.81501,2.60608 -6.97159,1.99404 -2.42792,-0.47075 -5.21253,-0.49457 -7.48342,0.71912 -4.43831,2.37213 -5.76494,1.07188 -8.00984,-1.49189 -1.4187,-1.62022 -3.0421,-1.97549 -3.26503,-4.06684 -2.50505,4.47158 -2.17508,7.54646 -2.17508,13.69263 0,14.48805 8.31915,26.23515 18.57105,26.23515 10.2519,0 18.55974,-11.7471 18.55974,-26.23515 0,-8.03364 -0.49546,-13.07672 -4.52015,-17.88874 z"
       id="path3010"
       sodipodi:nodetypes="csssscsssc"
       inkscape:connector-curvature="0" />
    <path
       style="fill:#ffe3a4;fill-opacity:1;stroke:none"
       d="m 215.53717,718.49871 c -4.95183,-0.23519 -5.18989,-0.25475 -10.34169,-0.36751 6.12606,8.1307 8.02751,14.71067 9.45001,24.09818 0.47733,3.15008 1.84039,9.31707 2.17401,11.10762 1.41929,2.9867 4.71022,0.18994 5.1806,6.16451 8.38376,-3.83129 9.72297,-11.5874 9.72297,-24.34049 0,-15.95531 -9.45606,-13.13448 -16.1859,-16.66231 z"
       id="path3821"
       sodipodi:nodetypes="ccsccsc"
       inkscape:connector-curvature="0" />
    <path
       style="fill:#ffcc00;fill-opacity:1"
       d="m 199.7669,788.93475 c 8.89506,-2.4705 22.56214,-21.60704 20.06991,-28.10166 -0.74849,-1.95053 -2.42412,-2.10378 -14.80835,-1.3543 -16.21418,0.98135 -28.84156,3.99698 -40.69798,9.71942 -16.42312,7.9265 -19.20513,12.64989 -9.77208,16.59127 9.685,4.04666 35.49735,5.84249 45.2085,3.14527 z"
       id="path3796"
       inkscape:connector-curvature="0" />
    <path
       style="fill:#ffcc00;fill-opacity:1"
       d="m 181.95257,757.71947 c 5.24892,-1.50376 13.95265,-2.74585 20.53131,-2.93001 11.40936,-0.31937 11.41921,-0.32263 10.81317,-3.57527 -0.33362,-1.79056 -0.99714,-5.83293 -1.47448,-8.98303 -1.60493,-10.59153 -7.71439,-23.59985 -14.91926,-31.76638 -6.50001,-7.36757 -13.82416,-11.43391 -21.17706,-11.75741 -5.03748,-0.22162 -5.57205,0.13038 -10.22597,6.73357 -2.70085,3.8321 -6.74358,11.74319 -8.98386,17.58023 -4.91809,12.81401 -10.70732,34.42259 -9.67136,36.09881 1.43851,2.32756 25.43617,1.37024 35.10751,-1.40051 z"
       id="path3792"
       inkscape:connector-curvature="0" />
    <path
       style="fill:#000000"
       d="m 465.69583,837.08322 c 35.2993,-5.74259 57.53719,-27.42773 63.52644,-61.94742 0.69448,-4.00279 1.06827,-9.93948 1.04927,-16.66615 -0.0812,-28.77823 -7.55893,-51.30598 -22.36763,-67.38578 -1.44666,-1.57082 -2.45333,-3.033 -2.23712,-3.24928 0.21629,-0.21626 3.92422,-2.01811 8.23981,-4.00411 7.69663,-3.54187 14.31134,-7.33019 14.2916,-8.18492 -0.0181,-0.79542 -4.2956,-5.30783 -8.60149,-9.0744 -2.89735,-2.53441 -4.83758,-3.73019 -6.0526,-3.73019 -0.98352,0 -6.97759,2.55215 -13.32017,5.67144 l -11.53202,5.67145 -5.91863,-3.36518 c -6.96376,-3.95939 -16.50111,-7.49615 -23.2491,-8.62158 -4.64478,-0.77464 -4.92258,-0.92978 -7.89466,-4.40863 -5.02081,-5.87692 -13.31809,-12.08399 -21.39973,-16.00881 -9.04783,-4.39406 -14.01286,-5.71812 -23.07341,-6.15319 -6.58057,-0.31598 -7.16861,-0.2374 -9.34722,1.24908 -5.01164,3.41946 -6.66256,9.11092 -4.62017,15.92778 l 0.74609,2.49023 9.45303,0.38061 c 10.25143,0.41278 19.73926,2.37328 25.23971,5.21537 l 2.93955,1.51888 -5.35035,0.80125 c -8.42245,1.26131 -14.00182,2.90027 -20.98036,6.16301 -2.08103,0.97294 -2.49182,0.96124 -5.35035,-0.15266 -1.70293,-0.66359 -6.02011,-2.23367 -9.59371,-3.48906 -7.72401,-2.71343 -7.48933,-2.79249 -13.79974,4.64997 -5.80779,6.84968 -9.01852,11.64648 -8.57288,12.8078 0.21014,0.54763 2.57848,1.65324 5.26295,2.45692 2.68448,0.80369 4.99586,1.5587 5.13637,1.67781 0.14052,0.11911 -1.26338,1.87847 -3.11979,3.90967 -9.21096,10.07824 -16.6195,25.35379 -20.32669,41.9112 -2.02335,9.0369 -2.20018,27.63264 -0.35036,36.84409 5.24386,26.11229 19.80833,45.34086 43.18968,57.02076 9.97425,4.9825 26.20743,9.49352 39.61162,11.00755 7.04006,0.79519 20.45986,0.35366 28.37206,-0.93351 z"
       id="path3877"
       inkscape:connector-curvature="0" />
    <path
       style="fill:#000000"
       d="m 439.92731,832.75378 c -11.08545,-1.1845 -25.55651,-4.95792 -37.68559,-9.82659 -13.34964,-5.35866 -13.35494,-5.38715 -2.94368,-15.85858 9.91197,-9.96927 20.00105,-17.42185 30.93176,-22.8485 12.57308,-6.24206 19.23722,-7.88129 32.10213,-7.8962 8.22256,-0.01 10.97932,0.24813 15.28476,1.42835 6.77903,1.85825 16.20576,6.39448 22.31145,10.73649 6.43921,4.5791 13.56655,11.31693 13.56655,12.82508 0,1.79583 -6.07532,9.07453 -11.49483,13.77161 -12.85758,11.14372 -29.36395,17.25531 -48.36226,17.90637 -4.78187,0.16384 -10.9515,0.0569 -13.71029,-0.23803 z"
       id="path3875"
       inkscape:connector-curvature="0" />
    <path
       style="fill:#ac9393"
       d="m 463.03924,827.04536 c 16.15105,-2.61961 30.06779,-9.8078 40.65654,-20.99968 4.53123,-4.78923 4.69261,-4.18291 -2.69556,-10.12636 -21.09658,-16.97139 -44.10787,-19.31437 -68.60843,-6.98562 -6.82971,3.43668 -12.34194,7.05371 -18.88185,12.38995 -5.17788,4.2249 -15.30398,13.96931 -14.9178,14.35548 0.13521,0.13522 3.69749,1.59354 7.91621,3.24078 20.20108,7.88755 40.23957,10.7678 56.53089,8.12545 z"
       id="path3873"
       inkscape:connector-curvature="0" />
    <path
       style="fill:#483737"
       d="m 453.47775,761.75576 c -2.6945,-1.3337 -3.14212,-2.0217 -9.02875,-13.87695 -5.63081,-11.34009 -6.19167,-12.81511 -6.17171,-16.23111 0.0287,-4.91971 3.7587,-12.66659 8.27162,-17.17949 6.34387,-6.34388 16.7864,-10.16196 27.79316,-10.16196 18.52545,1.76615 12.8049,1.10033 21.20024,3.26202 9.92825,3.58593 19.29011,10.70562 19.29011,14.6701 0,2.61446 -1.03582,3.34357 -5.49488,3.86764 l -3.73489,0.43893 -1.33303,3.90408 c -5.72836,16.77658 -20.84713,28.99613 -39.59679,32.0037 -6.21369,0.99678 -7.99771,0.88568 -11.19497,-0.69696 l -1.1e-4,0 z"
       id="path3871"
       sodipodi:nodetypes="csssccscccscc"
       inkscape:connector-curvature="0" />
    <path
       style="fill:#ffcc00;fill-opacity:1"
       d="m 465.87131,756.08378 c 15.00527,-3.07745 26.47986,-11.3721 32.26452,-23.32321 1.4585,-3.01324 2.65177,-5.80017 2.65177,-6.19323 0,-1.02244 -1.86775,-1.36922 -12.0383,-2.2349 l -9.02873,-0.76845 -5.35034,2.36351 c -2.94272,1.30001 -7.39441,3.50061 -9.89275,4.89024 -4.98219,2.77128 -15.74479,10.68325 -16.70862,12.28307 -0.43284,0.71843 0.40191,2.87776 2.90865,7.52394 l 3.51572,6.51627 3.26156,0 c 1.79386,0 5.5813,-0.47579 8.41652,-1.05724 z"
       id="path3869"
       inkscape:connector-curvature="0" />
    <path
       style="fill:#ffffff"
       d="m 449.80148,736.61786 c 2.10988,-1.72396 6.89102,-5.10973 10.62478,-7.52394 10.31167,-6.66742 9.79329,-6.14208 5.58403,-5.65867 -4.93785,0.56707 -13.58542,3.11089 -19.37428,5.69926 -5.22926,2.33823 -5.13318,2.05755 -2.662,7.77547 0.67566,1.56331 1.4001,2.84237 1.60991,2.84237 0.20978,0 2.1077,-1.41055 4.21756,-3.13449 z"
       id="path3867"
       inkscape:connector-curvature="0" />
    <path
       style="fill:#ffcc00;fill-opacity:1"
       d="m 446.74591,724.45743 c 8.2229,-3.52475 24.53159,-5.05451 43.16917,-4.04922 6.34265,0.3421 13.55419,0.90836 16.02573,1.2584 2.47145,0.35 4.63593,0.49405 4.80988,0.32002 0.79139,-0.79138 -5.40304,-5.94682 -9.62869,-8.01367 -6.73455,-3.29406 -11.58439,-4.39453 -21.15057,-4.79936 -12.68522,-0.5368 -21.11049,1.7461 -29.04982,7.87123 -2.884,2.22498 -8.39297,8.66284 -7.41293,8.66284 0.17628,0 1.63303,-0.56266 3.23723,-1.25024 z"
       id="path3865"
       inkscape:connector-curvature="0" />
    <path
       style="fill:#6c5353"
       d="m 490.94522,685.75492 c -2.75519,0.0861 -5.51247,0.50665 -9.55122,1.23309 -1.1539,0.20765 -2.40858,0.43229 -3.80377,0.68969 -0.0626,0.0772 0.46147,0.64943 1.17039,1.25399 1.23535,1.05348 1.27215,1.14592 0.73149,2.23629 -0.96386,1.94379 -1.16949,3.49744 -0.79418,5.97735 0.31263,2.06558 2.16406,6.51132 2.86328,6.87605 0.1295,0.0677 1.05323,-0.408 2.04818,-1.06591 3.99986,-2.64483 10.27655,-1.22453 15.86297,0.89871 1.36399,0.51842 2.65372,1.12229 3.11407,-0.56429 0.018,-0.066 0.88612,-0.98198 1.40029,-2.2363 2.76427,-6.74353 0.71983,-12.02737 -3.44847,-14.52538 -4.08126,-0.6028 -6.83783,-0.85934 -9.59303,-0.77329 z m 2.44529,6.08186 c 1.98185,0 3.59477,1.50036 3.59477,3.34396 0,1.8436 -1.61292,3.34397 -3.59477,3.34397 -1.98187,0 -3.57387,-1.50037 -3.57387,-3.34397 0,-1.8436 1.592,-3.34396 3.57387,-3.34396 z"
       id="path3896"
       inkscape:connector-curvature="0" />
    <path
       style="fill:#ffffff"
       d="m 493.32531,687.5392 -7.10594,2.06909 c -3.44618,1.86327 -5.63284,4.52446 -5.87286,4.28445 -0.68189,-0.68189 -0.49986,2.22513 0.3344,5.53847 0.59127,2.34805 0.99517,2.9184 1.83919,2.59158 5.38719,-2.08596 11.57422,-1.95757 15.13147,0.3135 1.09434,0.69867 2.25461,1.28981 2.57068,1.31669 0.31606,0.0269 0.47269,-2.19224 0.33439,-4.93237 -0.27908,-5.52657 -1.45657,-7.79035 -5.14136,-9.94831 l -2.08997,-1.2331 z m 0.0664,4.28263 c 2.12167,-0.0475 3.73208,1.77763 3.6093,3.36944 -0.14196,1.81917 -1.60482,3.35146 -3.67473,3.34764 -2.00926,-0.004 -3.51953,-1.74763 -3.52301,-3.50031 -0.004,-1.62673 1.72808,-3.34249 3.58844,-3.21677 z"
       id="path3863"
       sodipodi:nodetypes="ccsssssscccsssc"
       inkscape:connector-curvature="0" />
    <path
       style="fill:#552200"
       d="m 385.14566,669.58094 c -0.63298,0.0404 -8.99827,10.14854 -8.6414,10.4425 0.10729,0.0883 5.60761,1.85538 12.22442,3.92791 6.61679,2.07253 12.25258,3.89208 12.51181,4.04287 0.66274,0.23903 1.33454,0.48054 2.01187,0.70895 8.20575,-3.13827 12.26129,-3.26029 23.62493,-3.14234 -6.51877,-2.69716 -41.21575,-16.01277 -41.73163,-15.97989 z"
       id="path3859"
       inkscape:connector-curvature="0" />
    <path
       style="fill:#6c5353"
       d="m 428.19055,686.99051 c -11.36953,-0.0627 -15.34441,0.41446 -25.874,4.78606 -4.70149,5.35472 -3.93816,13.81964 2.19449,24.202 1.14068,1.93115 2.14148,3.51118 2.23628,3.51118 0.0948,0 1.53097,-1.02182 3.17677,-2.27809 6.74054,-5.14517 14.72512,-6.3179 21.04613,-3.09318 1.57232,0.80215 2.96438,1.32009 3.11407,1.1704 0.80815,-0.80814 1.70087,-8.73024 1.37938,-12.24729 -0.38596,-4.22252 -1.20559,-6.73249 -3.19767,-9.67663 -1.11742,-1.6515 -1.11376,-1.82279 0.16721,-3.92918 0.73511,-1.20879 1.24037,-2.29373 1.12858,-2.40346 -1.96612,-0.0216 -3.74703,-0.0329 -5.37124,-0.0419 z m -6.41625,8.25543 c 3.17558,0 5.74745,2.28347 5.74745,5.09957 0,2.81608 -2.57187,5.09956 -5.74745,5.09956 -3.17561,0 -5.74745,-2.28348 -5.74745,-5.09956 0,-2.8161 2.57184,-5.09957 5.74745,-5.09957 z"
       id="path3882"
       inkscape:connector-curvature="0" />
    <path
       style="fill:#ffffff"
       d="m 409.0045,691.94376 c -0.58672,0.0479 -1.00813,0.2605 -1.5675,0.627 -2.10296,1.37793 -4.30297,5.75445 -4.28444,8.52715 0.0158,2.37919 1.87363,6.95221 4.20085,10.3663 l 1.44209,2.13178 2.19448,-1.67198 c 1.20286,-0.91746 3.2389,-2.10046 4.51436,-2.63337 3.23806,-1.35296 8.5781,-1.21763 11.7039,0.29259 l 2.61249,1.25399 0.7106,-2.02729 c 0.91508,-2.62499 0.89942,-9.23056 -0.0209,-11.6412 -0.66324,-1.73726 -0.78723,-1.80129 -1.58839,-0.7106 l -8.54803,-2.27807 -5.66385,-0.8987 c -3.28444,-1.02402 -4.72781,-1.41733 -5.70565,-1.3376 z m 12.7698,3.30218 c 3.17558,0 5.74745,2.28347 5.74745,5.09957 0,2.81608 -2.57187,5.09956 -5.74745,5.09956 -3.17561,0 -5.74745,-2.28348 -5.74745,-5.09956 0,-2.8161 2.57184,-5.09957 5.74745,-5.09957 z"
       id="path3857"
       inkscape:connector-curvature="0" />
    <path
       style="fill:#ffff00"
       d="m 396.90154,651.02561 c -0.78048,-0.78048 -0.47992,-4.90545 0.49379,-6.77689 0.5168,-0.99328 1.71124,-2.52677 2.65432,-3.40776 1.60012,-1.49477 2.077,-1.57694 7.13767,-1.23007 2.98263,0.20442 5.56838,0.51711 5.74614,0.69486 0.17772,0.17772 -0.43525,1.08154 -1.36217,2.00846 -2.32335,2.32335 -2.87934,4.94939 -1.54146,7.28049 l 1.07711,1.87677 -6.87977,0 c -3.78388,0 -7.08041,-0.20063 -7.32563,-0.44586 z"
       id="path3855"
       inkscape:connector-curvature="0" />
    <path
       style="fill:#916f6f"
       d="m 349.60616,826.38895 c -2.9861,-0.97228 -7.8738,-4.11509 -9.89901,-6.36504 -1.032,-1.14652 -2.04846,-1.41591 -5.35035,-1.41798 -4.62298,0 -7.95191,-1.57476 -9.21753,-4.35245 -0.68741,-1.50873 -1.01481,-1.62999 -3.16314,-1.17193 -4.4923,0.95785 -10.89822,0.47911 -13.8612,-1.03589 -3.55056,-1.81545 -7.23707,-6.12932 -8.56269,-10.01976 -1.43858,-4.22203 -1.33011,-11.80556 0.21761,-15.21286 1.48562,-3.27055 4.94099,-6.32587 7.15413,-6.32587 0.89139,0 1.62069,-0.12023 1.62069,-0.26718 0,-0.147 -1.03157,-1.80011 -2.29239,-3.67369 -5.85307,-8.69759 -4.07899,-17.84356 4.62384,-23.83743 3.29667,-2.2705 3.58832,-2.69692 4.29258,-6.27657 1.63737,-8.32256 6.50291,-12.6792 14.82768,-13.27684 l 4.39744,-0.31567 0.76178,-2.76092 c 1.89157,-6.85555 6.60821,-10.30698 12.9022,-9.44136 1.80934,0.24884 3.28971,0.63072 3.28971,0.84862 0,0.21789 -0.59531,2.52208 -1.32292,5.12042 -3.72606,13.30587 -5.46978,32.30432 -4.08589,44.51751 2.01728,17.8031 7.91102,31.15666 18.58527,42.1087 2.31671,2.37704 4.21219,4.49959 4.21219,4.7168 0,0.91325 -5.88135,6.24701 -8.19059,7.42792 -3.34554,1.7109 -7.58696,2.10307 -10.93941,1.01147 z"
       id="path3851"
       inkscape:connector-curvature="0" />
    <path
       id="path3894"
       d="m 513.83307,666.5007 c 0.5569,-0.0103 8.60646,8.23412 8.31528,8.51712 -0.0875,0.085 -4.77428,2.02776 -10.41617,4.31827 -5.6419,2.29051 -10.44342,4.28894 -10.65944,4.43958 -0.56281,0.25694 -1.13339,0.51669 -1.70977,0.76538 -7.40789,-2.15564 -10.96621,-1.97032 -20.9034,-1.04861 5.51109,-2.83015 34.91961,-16.98335 35.3735,-16.99174 z"
       style="fill:#552200"
       inkscape:connector-curvature="0" />
    <path
       sodipodi:type="arc"
       style="fill:#ffffff;fill-rule:evenodd;stroke:none"
       id="path3916"
       sodipodi:cx="569.07062"
       sodipodi:cy="675.77136"
       sodipodi:rx="14.6452"
       sodipodi:ry="14.6452"
       d="m 583.71582,675.77136 c 0,8.08832 -6.55688,14.6452 -14.6452,14.6452 -8.08832,0 -14.6452,-6.55688 -14.6452,-14.6452 0,-8.08832 6.55688,-14.6452 14.6452,-14.6452 8.08832,0 14.6452,6.55688 14.6452,14.6452 z"
       transform="matrix(0.6687945,0,0,0.6687945,69.298701,222.95164)" />
    <text
       xml:space="preserve"
       style="font-size:40px;font-style:normal;font-weight:normal;line-height:125%;letter-spacing:0px;word-spacing:0px;fill:#000000;fill-opacity:1;stroke:none;font-family:Sans"
       x="69.701927"
       y="83.845459"
       id="text3056"
       sodipodi:linespacing="125%"><tspan
         sodipodi:role="line"
         id="tspan3058"
         x="69.701927"
         y="83.845459">http://free-svg.blogspot.com/</tspan></text>
  </g>
</svg>
