<?xml version="1.0" encoding="UTF-8" standalone="no"?>
<!-- Created with Inkscape (http://www.inkscape.org/) -->

<svg
   xmlns:dc="http://purl.org/dc/elements/1.1/"
   xmlns:cc="http://creativecommons.org/ns#"
   xmlns:rdf="http://www.w3.org/1999/02/22-rdf-syntax-ns#"
   xmlns:svg="http://www.w3.org/2000/svg"
   xmlns="http://www.w3.org/2000/svg"
   xmlns:sodipodi="http://sodipodi.sourceforge.net/DTD/sodipodi-0.dtd"
   xmlns:inkscape="http://www.inkscape.org/namespaces/inkscape"
   width="611"
   height="550.35999"
   id="svg4693"
   version="1.1"
   inkscape:version="0.48.2 r9819"
   sodipodi:docname="Angry Birds PIG Mustache.svg">
  <defs
     id="defs4695">
    <inkscape:perspective
       sodipodi:type="inkscape:persp3d"
       inkscape:vp_x="0 : 0.5 : 1"
       inkscape:vp_y="0 : 1000 : 0"
       inkscape:vp_z="1 : 0.5 : 1"
       inkscape:persp3d-origin="0.5 : 0.33333333 : 1"
       id="perspective2824" />
    <inkscape:perspective
       id="perspective10"
       inkscape:persp3d-origin="372.04724 : 350.78739 : 1"
       inkscape:vp_z="744.09448 : 526.18109 : 1"
       inkscape:vp_y="0 : 1000 : 0"
       inkscape:vp_x="0 : 526.18109 : 1"
       sodipodi:type="inkscape:persp3d" />
  </defs>
  <sodipodi:namedview
     id="base"
     pagecolor="#ffffff"
     bordercolor="#666666"
     borderopacity="1.0"
     inkscape:pageopacity="0.0"
     inkscape:pageshadow="2"
     inkscape:zoom="0.35"
     inkscape:cx="-31.715934"
     inkscape:cy="520"
     inkscape:document-units="px"
     inkscape:current-layer="layer1"
     showgrid="false"
     inkscape:window-width="1366"
     inkscape:window-height="712"
     inkscape:window-x="-4"
     inkscape:window-y="-4"
     inkscape:window-maximized="1" />
  <metadata
     id="metadata4698">
    <rdf:RDF>
      <cc:Work
         rdf:about="">
        <dc:format>image/svg+xml</dc:format>
        <dc:type
           rdf:resource="http://purl.org/dc/dcmitype/StillImage" />
        <dc:title />
      </cc:Work>
    </rdf:RDF>
  </metadata>
  <g
     inkscape:label="Layer 1"
     inkscape:groupmode="layer"
     id="layer1"
     transform="translate(0,-502.00215)">
    <path
       inkscape:connector-curvature="0"
       style="fill:#000000"
       d="m 362.56175,1029.6116 c -37.81339,-2.5943 -97.02329,-10.6276 -116.96615,-15.8694 -12.37142,-3.2517 -25.55325,-5.9353 -29.29298,-5.9636 -10.39349,-0.079 -60.25678,-17.79714 -77.65567,-27.5944 -37.7062,-21.23231 -61.041065,-54.49813 -68.546514,-97.71896 -3.309301,-19.05687 -3.284825,-26.77143 0.149081,-46.99059 2.259615,-13.30481 4.959227,-30.23643 5.999144,-37.62581 1.039917,-7.38938 3.726946,-17.82985 5.971168,-23.20105 5.707743,-13.66055 27.652381,-33.84332 36.797711,-33.84332 5.16034,0 12.97092,-5.75061 25.75423,-18.96185 23.95664,-24.75852 63.38157,-43.58729 102.62137,-49.01046 l 12.29452,-1.69917 -2.54905,-13.64454 c -3.66924,-19.64041 2.02906,-48.77019 11.86218,-60.63958 15.74973,-19.01126 38.60237,-23.70729 53.40529,-10.97435 15.76841,13.56343 9.42499,32.88545 -17.03783,51.8971 -27.66625,19.87621 -27.20683,31.03132 1.28064,31.09465 10.13304,0.0224 21.19975,0.78659 24.59267,1.69793 5.49784,1.4767 6.03818,0.5365 4.96661,-8.6422 -2.36592,-20.26586 18.04448,-43.35399 40.07329,-45.33069 22.8032,-2.04618 49.0776,12.94591 47.80672,27.27837 -1.57436,17.75461 -14.68615,27.95476 -35.93446,27.95476 -12.44166,0 -23.63933,4.87779 -21.00028,9.14788 0.9683,1.56677 4.20697,2.84865 7.19703,2.84865 14.31941,0 75.69473,49.33731 100.73946,80.98067 34.94301,44.1496 55.69117,95.31049 56.46669,139.23578 0.3116,17.65077 -6.10654,52.65795 -10.21261,55.70369 -1.11191,0.82475 -4.7878,6.89801 -8.16865,13.4961 -21.06243,41.10539 -75.60508,61.52069 -150.61361,56.37439 z"
       id="path2878" />
    <path
       inkscape:connector-curvature="0"
       style="fill:#d45500"
       d="m 342.65662,996.69817 c 0,-4.09707 8.28267,-3.23179 10.01872,1.04664 1.14588,2.82409 2.28657,2.64529 4.62373,-0.72471 2.47092,-3.56284 3.86069,-3.7155 6.82641,-0.74978 4.43253,4.43248 12.68228,5.02908 10.02202,0.72471 -1.01946,-1.64952 0.13796,-2.99914 2.57221,-2.99914 2.43418,0 5.01586,-1.687 5.7371,-3.74891 0.96115,-2.74787 2.89284,-2.34744 7.23411,1.49957 9.41077,8.33935 12.94939,6.71209 9.73984,-4.4789 -6.32406,-22.05074 -0.30148,-26.8366 10.15023,-8.0659 3.15292,5.66251 7.26711,11.28699 9.1426,12.49889 4.77377,3.08461 10.90785,2.82815 10.90785,-0.45605 0,-2.37247 -21.48776,-41.11226 -30.08094,-54.23219 -1.62057,-2.47429 -5.23209,-8.9259 -8.02561,-14.33693 -3.48912,-6.75849 -6.53461,-9.27201 -9.72867,-8.02941 -26.65463,10.36956 -74.31568,8.46877 -114.89237,-4.58207 -27.74073,-8.92237 -63.01307,-28.99082 -66.38121,-37.76805 -1.39528,-3.63605 -6.23993,-0.81377 -21.93793,12.77991 -33.5644,29.06522 -51.86559,47.75953 -51.86559,52.97974 0,6.49569 4.92381,6.34244 8.62344,-0.26843 3.59137,-6.41746 6.83377,-3.66371 7.42715,6.30779 l 0.44463,7.47201 9.3514,-5.77773 c 13.10245,-8.09529 16.14122,-7.27175 16.14122,4.37432 0,13.15312 10.68042,20.48281 32.48509,22.29375 8.79443,0.73037 16.6149,2.95682 17.37884,4.94758 1.94559,5.07015 22.56309,3.84418 25.53695,-1.51849 1.33713,-2.41119 4.4194,-9.44502 6.8495,-15.63073 5.85036,-14.89177 10.61499,-14.25268 11.17953,1.49957 0.25123,7.01047 0.77037,14.09592 1.15363,15.74545 0.38324,1.64952 0.85248,4.60129 1.04275,6.55949 0.23065,2.37384 3.88354,2.98628 10.9611,1.83774 8.22092,-1.33407 11.59031,-0.44597 14.93865,3.93748 3.75209,4.912 4.72137,5.0655 7.33373,1.16138 1.6556,-2.47428 3.03085,-8.21013 3.05611,-12.74631 0.0679,-12.17511 4.67522,-10.07505 13.51038,6.15806 6.93983,12.75074 9.02859,14.43935 18.18196,14.69881 5.6878,0.16122 10.34144,-0.92288 10.34144,-2.40916 z"
       id="path2872" />
    <g
       id="g4729"
       transform="translate(-867.71428,513.42857)">
      <path
         id="path2876"
         d="m 1168.7133,70.032085 c -18.0572,0 -34.4176,15.947821 -39.0031,38.036145 -3.0282,14.58685 -2.3017,34.74689 1.7498,48.94964 0.9946,3.4867 -5.4653,6.06122 -28.7343,11.4661 l -30.0236,6.97638 7.6901,9.14064 c 8.8186,10.48041 8.2799,16.23075 -1.4046,15.12696 -3.6776,-0.41917 -14.7965,1.34061 -24.728,3.91413 -9.9316,2.57351 -18.7854,3.9626 -19.6628,3.08526 -2.8035,-2.80346 5.7891,-10.72933 11.6273,-10.72933 3.097,0 5.6409,-2.08129 5.6409,-4.62789 0,-2.54658 1.6681,-4.41212 3.73,-4.14438 9.5065,1.23449 13.9925,-0.44401 12.387,-4.62787 -1.3572,-3.5368 -5.7994,-2.24643 -22.7019,6.60797 -22.4123,11.7407 -44.2433,33.17392 -37.829,37.13818 1.9933,1.23193 4.5694,1.67201 5.7101,0.96703 2.5886,-1.59986 22.7102,6.63672 24.9123,10.19976 3.553,5.7489 -2.5596,5.91104 -13.4692,0.34537 -6.7803,-3.45905 -17.5327,-5.8712 -26.17867,-5.8712 -26.30005,0 -43.26975,18.06756 -48.5122,51.6435 -1.36005,8.71071 -4.07713,24.62039 -6.03235,35.34229 -4.20315,23.0489 -2.14181,52.5058 4.99627,71.69767 6.21755,16.71692 21.58818,41.37991 31.33606,50.28506 20.93509,19.12516 62.15289,36.83595 110.76989,47.5682 12.2954,2.71421 27.7542,6.16479 34.3523,7.66709 15.4199,3.51099 55.2285,8.1014 91.4755,10.56814 15.6704,1.06646 28.9258,2.29891 29.448,2.73989 2.4268,2.04901 43.4673,-1.8828 60.0704,-5.75606 21.9906,-5.13009 42.027,-16.24308 55.0281,-30.53023 9.2328,-10.14624 27.956,-40.29251 25.0274,-40.29251 -0.8174,0 -0.2883,-3.13024 1.1742,-6.97636 9.7467,-25.63588 4.1946,-74.26005 -12.6634,-110.74686 -11.5762,-25.05536 -37.2582,-62.93922 -56.6166,-83.53216 -24.495,-26.057 -67.6612,-56.62005 -79.9865,-56.63977 -5.0281,-0.008 -7.9705,-2.57061 -10.407,-9.02552 -1.8678,-4.94857 -4.3787,-8.97948 -5.5718,-8.97948 -2.1767,0 -1.317,-7.56058 2.0491,-18.16617 2.5179,-7.93331 18.3922,-18.5806 27.6983,-18.5806 8.3979,0 16.2212,7.98543 13.8606,14.13692 -1.728,4.50318 -14.2125,10.61419 -21.6889,10.61419 -2.9062,0 -7.8958,1.98846 -11.0977,4.42067 -5.256,3.99249 -3.9467,4.24192 13.6534,2.57871 30.9817,-2.92776 44.0303,-13.00234 36.0791,-27.85939 -7.5446,-14.09721 -38.9587,-20.00437 -56.9391,-10.7063 -11.4984,5.94603 -19.7684,26.82772 -15.2881,38.61176 1.7408,4.57881 3.1773,8.76219 3.1773,9.27879 0,0.69869 -41.1776,-0.15552 -60.2545,-1.24332 -4.5138,-0.25739 -8.65,-15.66905 -5.687,-21.20537 2.5654,-4.79353 2.2423,-5.43351 -1.9571,-3.82203 -4.4797,1.71896 -4.838,0.13459 -3.1314,-14.27508 3.2987,-27.852015 23.7522,-49.381121 36.7008,-38.634765 7.6767,6.371162 4.6523,15.803319 -9.9235,31.036745 -9.6915,10.12884 -11.047,12.32928 -4.2595,6.86125 5.4875,-4.42069 11.2313,-8.03548 12.7785,-8.03548 3.6659,0 14.6981,-18.126646 14.7126,-24.17551 0.021,-9.234827 -11.5706,-17.820805 -24.0835,-17.820805 z m -7.3907,169.481835 c 33.9633,-0.0258 36.9715,0.46228 53.5084,8.84133 19.7167,9.9902 35.806,24.83171 48.2129,44.45991 l 8.3808,13.26201 7.2526,-6.72309 c 3.9898,-3.69765 10.2603,-7.273 13.9298,-7.96642 10.3812,-1.96178 39.0584,4.58915 40.5917,9.27879 1.0421,3.187 -0.3587,3.67424 -5.7791,2.00312 -3.9322,-1.21234 -13.9069,-2.91712 -22.1724,-3.77599 -11.7881,-1.2249 -16.4985,-0.35537 -21.873,4.00624 -7.1395,5.79392 -8.0596,10.99793 -4.8352,27.26077 l 1.9112,9.69323 6.4697,-9.69323 c 9.6057,-14.3852 24.1105,-20.8734 42.8252,-19.1332 8.5129,0.79159 18.8726,3.64945 23.0012,6.35471 7.9723,5.22364 15.6998,18.99029 18.0972,32.21099 4.6597,25.69763 -23.2206,54.479 -50.0318,51.62047 -15.1445,-1.61467 -30.1947,-11.57422 -36.2863,-24.01434 -5.6347,-11.5072 -5.7925,-11.60353 -7.9433,-4.2595 -1.2078,4.12382 -2.3222,9.81108 -2.4867,12.64035 -0.4095,7.04564 16.7273,26.00019 25.5109,28.20475 8.4356,2.11717 9.6034,7.13754 1.6578,7.13754 -5.7706,0 -28.5027,-19.84457 -31.1749,-27.21473 -1.2001,-3.30971 -2.3936,-3.46458 -5.3187,-0.71375 -2.9988,2.8203 0.9435,11.84969 19.1563,43.88431 13.8771,24.40856 22.2117,42.21921 21.1133,45.08158 -3.0646,7.98606 -13.1777,9.12567 -22.1264,2.50965 l -8.1967,-6.0554 1.2665,6.67706 c 1.2447,6.51177 0.5909,6.64756 -29.7014,7.04543 -17.0385,0.22373 -37.431,0.99852 -45.3349,1.7038 -13.8367,1.23467 -14.5259,0.92377 -18.4425,-8.44993 -3.5758,-8.5582 -11.9383,-17.95807 -10.1767,-11.44306 1.3522,5.00027 -4.0402,15.95584 -7.8512,15.95584 -2.1612,0 -5.5826,-2.01062 -7.621,-4.46672 -2.0384,-2.45611 -4.5961,-3.89766 -5.6871,-3.22341 -1.091,0.67427 -6.562,0.29233 -12.1568,-0.85189 -8.6619,-1.77156 -10.6734,-3.84699 -13.5153,-13.97576 l -3.3385,-11.90355 -4.0293,9.73927 c -3.7491,9.05114 -4.9206,9.66131 -16.7847,8.88738 -7.0136,-0.45755 -14.6083,-2.36333 -16.8768,-4.23648 -2.2684,-1.87313 -10.1907,-4.05069 -17.6135,-4.83509 -7.4229,-0.78442 -18.5655,-3.84527 -24.7512,-6.81519 -9.0818,-4.36044 -11.2358,-7.04052 -11.2358,-13.90668 l 0,-8.51899 -11.8806,6.07842 c -14.9968,7.65082 -16.1164,7.5759 -14.5053,-0.85191 1.1503,-6.01747 0.2879,-6.73898 -6.72307,-5.71002 -10.28598,1.50967 -13.41531,-5.72861 -7.45988,-17.2452 2.41448,-4.66904 19.16825,-22.24396 37.20725,-39.0492 32.0633,-29.87031 32.7282,-30.76982 30.0697,-40.03926 -4.5294,-15.7933 -3.1185,-26.762 5.549,-43.14751 10.9317,-20.66628 26.2797,-36.44585 46.0485,-47.361 15.3856,-8.49497 17.8764,-8.93038 52.1501,-8.95645 z m -155.0457,7.4829 c 22.342,-0.0195 36.3386,10.49516 42.7331,32.11889 8.1721,27.63477 -13.2814,54.84387 -43.2396,54.84387 -13.3508,0 -15.88656,-1.19705 -27.79034,-13.10081 -11.72354,-11.72356 -13.10082,-14.58361 -13.10082,-27.09961 0,-29.01505 15.70433,-46.74 41.39766,-46.76234 z m 318.6332,23.96829 c 11.8964,0 23.8532,7.0194 23.8532,13.99878 0,2.01415 2.4166,5.41956 5.3646,7.575 2.948,2.15543 5.6307,7.64366 5.9633,12.17984 0.3325,4.53618 0.279,8.17664 -0.1152,8.08154 -0.3938,-0.0951 -5.1004,-3.15281 -10.476,-6.76915 -5.3756,-3.61633 -11.9683,-9.74472 -14.6435,-13.63039 -2.6752,-3.88568 -9.4797,-8.97799 -15.1039,-11.32794 -12.7752,-5.33785 -10.3446,-10.10768 5.1574,-10.10768 z m 45.6111,54.42945 c 0.4299,0.0121 1.1205,0.36996 2.0492,0.944 11.0934,6.85611 15.5738,37.36368 7.7132,52.56446 -5.4172,10.47561 -22.5178,23.25666 -22.5178,16.83075 0,-0.65981 4.7257,-5.92301 10.499,-11.69634 8.6094,-8.60944 10.4991,-12.72182 10.4991,-22.88615 0,-6.816 -2.0385,-17.24065 -4.5128,-23.16244 -3.7821,-9.05192 -4.9347,-12.31744 -3.8911,-12.57126 0.051,-0.0121 0.099,-0.0248 0.1612,-0.0229 z m -332.8391,7.69011 c 0.8322,-0.0655 0.9267,0.60806 0.3914,2.00311 -5.4053,14.08585 -36.8226,18.91415 -49.61738,7.62105 -6.08859,-5.374 -6.24026,-5.94608 -1.08214,-3.9832 3.29904,1.25539 12.34814,2.85839 20.12322,3.54573 11.0292,0.97499 16.1435,-0.17922 23.2315,-5.22651 3.6151,-2.5742 5.8834,-3.87608 6.9534,-3.96018 z"
         style="fill:#00ff00"
         inkscape:connector-curvature="0" />
      <path
         id="path2870"
         d="m 1151.5372,245.86864 c -19.9321,0.12006 -23.4258,1.50897 -38.3354,9.92347 -22.1593,12.50592 -32.3368,23.48616 -43.7692,47.1998 -10.9322,22.67611 -9.749,34.01723 5.4567,51.78165 34.5718,40.38934 131.5059,60.51437 176.4121,36.63165 18.6367,-9.91158 23.8845,-22.39501 21.3666,-50.86067 -3.0489,-34.46846 -30.0964,-71.32135 -63.3629,-86.36413 -15.6232,-7.0647 -21.9749,-8.15785 -48.1438,-8.28875 -3.5988,-0.018 -6.7767,-0.0402 -9.6241,-0.0229 z m -19.6628,36.97702 c 5.0321,0.13715 10.4917,3.27009 16.2552,9.43995 19.3031,20.664 6.0894,59.65596 -20.2153,59.65596 -2.4938,0 -8.4863,-3.92754 -13.3081,-8.74924 -9.9258,-9.92578 -10.6873,-16.91375 -3.9831,-36.21721 5.6439,-16.25079 12.8646,-24.35804 21.2513,-24.12946 z m 68.6354,12.22589 c 5.4854,0.19508 16.3013,11.43465 16.3013,16.94589 0,3.07998 1.9461,8.3871 4.3285,11.78845 2.3825,3.40136 4.8831,10.1188 5.5719,14.91974 1.2884,8.98056 -4.9806,25.21159 -9.7393,25.21159 -1.4723,0 -4.4802,0.59077 -6.677,1.31239 -2.1968,0.72163 -6.872,0.16153 -10.407,-1.26633 -11.5191,-4.65314 -16.071,-14.8974 -16.071,-36.17118 0,-16.82291 1.0339,-20.77726 6.9304,-26.31676 3.8177,-3.58659 8.2191,-6.47865 9.7622,-6.42379 z"
         style="fill:#00ff00"
         inkscape:connector-curvature="0" />
    </g>
    <path
       inkscape:connector-curvature="0"
       style="fill:#00ffff"
       d="m 458.21396,829.84531 c -1.82245,0.005 -3.72477,0.0841 -5.68701,0.25325 -20.23201,1.74421 -32.24294,13.79185 -34.21411,34.30622 -1.90968,19.87442 4.77998,32.46356 21.20539,39.97017 13.78131,6.29823 24.7363,5.49069 39.48666,-2.90106 5.63447,-3.20556 11.12811,-10.33126 14.80463,-19.20227 5.79421,-13.9808 5.80608,-14.21901 0,-28.34291 -6.78488,-16.50177 -17.97856,-24.13904 -35.59556,-24.0834 z m 9.69323,38.49662 c 4.14237,0.10692 8.15059,3.02566 8.15059,7.36778 0,7.62879 -12.67725,10.07401 -15.40324,2.97013 -1.03642,-2.70088 -0.49608,-6.29609 1.19725,-7.98943 1.68056,-1.68055 3.88558,-2.40451 6.0554,-2.34848 z"
       id="path2860" />
    <path
       inkscape:connector-curvature="0"
       style="fill:#00ffff"
       d="m 139.29718,766.81417 c -15.9636,0.0751 -31.44993,9.25154 -36.40141,24.26759 -11.788801,35.75115 28.20083,65.59529 57.72191,43.07847 20.28777,-15.47426 20.1791,-48.89844 -0.20722,-61.4979 -6.50669,-4.02134 -13.8571,-5.8823 -21.11328,-5.84816 z m 19.80089,31.56631 c 0.80761,-0.0168 1.6825,0.099 2.62477,0.34536 7.10012,1.85672 8.04543,7.61391 2.07219,12.57126 -3.11758,2.58736 -4.9906,2.33704 -7.82826,-1.08214 -4.65267,-5.60612 -2.52198,-11.71743 3.1313,-11.83448 z"
       id="path2850" />
    <text
       xml:space="preserve"
       style="font-size:43.89143372px;font-style:normal;font-weight:normal;line-height:125%;letter-spacing:0px;word-spacing:0px;fill:#000000;fill-opacity:1;stroke:none;font-family:Sans"
       x="27.083267"
       y="560.7229"
       id="text3031"
       sodipodi:linespacing="125%"><tspan
         sodipodi:role="line"
         id="tspan3033"
         x="27.083267"
         y="560.7229">http://free-svg.blogspot.com/</tspan></text>
  </g>
</svg>
